<?xml version="1.0" standalone="no"?>
<!DOCTYPE svg PUBLIC "-//W3C//DTD SVG 20010904//EN"
 "http://www.w3.org/TR/2001/REC-SVG-20010904/DTD/svg10.dtd">
<svg version="1.0" xmlns="http://www.w3.org/2000/svg"
 width="1024.000000pt" height="1024.000000pt" viewBox="0 0 1024.000000 1024.000000"
 preserveAspectRatio="xMidYMid meet">

<g transform="translate(0.000000,1024.000000) scale(0.100000,-0.100000)"
fill="#000000" stroke="none">
<path d="M0 5120 l0 -5120 5120 0 5120 0 0 5120 0 5120 -5120 0 -5120 0 0
-5120z m3125 3580 c211 -54 387 -198 485 -395 54 -110 73 -196 74 -330 0 -130
-21 -212 -90 -345 -39 -76 -145 -219 -162 -220 -4 -1 -31 -23 -61 -49 l-54
-49 20 -28 c28 -40 398 -760 414 -807 9 -26 18 -36 29 -32 100 31 284 33 396
4 262 -67 451 -241 529 -486 16 -48 29 -89 30 -90 1 -2 310 15 686 38 471 27
687 44 695 52 6 7 16 48 22 92 22 158 95 358 172 470 132 192 379 365 610 427
122 32 329 32 450 0 185 -51 347 -147 496 -296 204 -205 295 -425 295 -716 0
-243 -51 -427 -167 -602 -98 -146 -202 -237 -369 -321 -120 -60 -212 -87 -317
-94 l-88 -6 0 -488 0 -488 -26 -20 c-30 -23 -93 -28 -112 -9 -9 9 -12 135 -12
504 l0 491 -92 12 c-274 35 -521 182 -665 396 -85 126 -155 300 -169 421 -4
30 -11 57 -16 60 -13 8 -513 -19 -1008 -56 -69 -5 -179 -12 -246 -16 l-121 -6
-15 -92 c-34 -199 -124 -371 -253 -479 -79 -66 -218 -138 -315 -164 -84 -22
-282 -22 -360 0 -36 10 -58 12 -65 6 -5 -6 -98 -177 -205 -382 -132 -251 -202
-375 -217 -382 -21 -11 -19 -14 46 -67 182 -149 281 -349 283 -573 1 -113 -21
-203 -77 -320 -78 -161 -174 -258 -333 -335 -109 -53 -191 -71 -326 -71 -265
0 -487 114 -621 321 -91 140 -130 289 -123 470 4 96 10 128 35 196 94 252 290
412 571 465 84 16 258 6 347 -20 38 -11 70 -19 71 -18 1 1 34 63 72 137 39 74
116 218 172 320 166 304 178 330 159 340 -55 31 -148 112 -194 169 -170 211
-212 512 -106 769 57 139 149 255 264 333 31 22 57 46 57 54 0 16 -227 465
-394 777 -23 44 -48 78 -56 78 -8 0 -50 -7 -93 -15 -101 -19 -178 -19 -275 1
-151 31 -264 90 -380 198 -149 141 -232 346 -232 574 1 250 116 459 332 599
171 112 395 146 603 93z m316 -6668 c33 -17 65 -44 83 -69 28 -40 58 -130 49
-145 -2 -5 -23 -8 -46 -8 -41 0 -43 1 -59 48 -24 65 -66 103 -124 112 -65 10
-108 -4 -153 -49 -55 -55 -75 -122 -76 -246 0 -91 3 -105 30 -160 43 -84 89
-118 169 -123 85 -6 120 13 152 81 13 29 24 58 24 65 0 8 16 12 46 12 46 0 46
0 40 -30 -19 -100 -89 -189 -163 -209 -98 -27 -214 -4 -284 58 -146 128 -157
441 -21 592 62 69 126 99 213 99 54 0 77 -5 120 -28z m1415 -5 c124 -63 186
-217 165 -408 -22 -199 -121 -307 -291 -317 -63 -4 -85 -1 -128 18 -62 27
-135 101 -163 166 -93 219 -2 500 180 559 69 22 174 14 237 -18z m-1036 -137
l0 -160 165 0 165 0 0 161 0 160 48 -3 47 -3 3 -368 2 -368 -42 3 -43 3 -6
155 c-4 85 -7 161 -8 168 -1 9 -41 12 -166 12 l-165 0 -2 -167 -3 -168 -47 -3
-48 -3 0 370 0 371 50 0 50 0 0 -160z m1450 -165 l0 -325 173 -2 172 -3 0 -40
0 -40 -216 -3 -217 -2 -6 22 c-8 30 -8 565 1 651 l6 67 43 0 44 0 0 -325z
m548 -42 l-3 -368 -40 0 -40 0 -3 368 -2 367 45 0 45 0 -2 -367z m341 280 c30
-49 83 -137 118 -198 35 -60 90 -149 121 -198 l57 -89 3 287 2 286 43 -3 42
-3 0 -365 0 -365 -49 0 -49 0 -128 215 c-71 118 -147 247 -171 287 l-43 71 -5
-286 -5 -287 -45 0 -45 0 -3 368 -2 367 53 0 53 0 53 -87z m1036 42 l0 -40
-182 4 -183 4 0 -119 0 -119 172 0 173 0 3 -42 3 -43 -175 0 -176 0 0 -128 0
-128 177 -3 c98 -1 181 -5 185 -7 5 -3 8 -21 8 -40 l0 -34 -237 2 -238 3 0
360 c0 198 1 363 3 368 2 4 108 6 235 5 l232 -3 0 -40z"/>
<path d="M2824 8570 c-186 -34 -354 -155 -431 -311 -43 -87 -52 -135 -53 -264
0 -194 47 -321 160 -436 117 -118 249 -178 410 -187 181 -9 303 39 435 172
117 118 172 233 190 402 29 263 -167 535 -440 609 -74 20 -203 27 -271 15z"/>
<path d="M7005 6810 c-77 -12 -133 -29 -212 -65 -93 -43 -150 -83 -241 -169
-134 -127 -207 -255 -253 -442 -30 -121 -32 -326 -5 -434 40 -160 120 -296
240 -406 120 -111 255 -181 404 -210 100 -19 347 -18 432 1 92 22 253 104 332
169 319 265 408 773 198 1127 -120 202 -372 382 -597 425 -79 15 -214 17 -298
4z m435 -869 c0 -407 -1 -430 -19 -452 -16 -20 -29 -24 -74 -24 -31 0 -61 6
-71 14 -21 17 -268 370 -335 479 -28 45 -51 90 -52 99 0 16 -2 15 -9 -2 -5
-11 -9 -152 -9 -312 l-1 -293 -24 -6 c-13 -3 -38 -4 -57 -2 -26 2 -35 9 -40
28 -4 14 -7 210 -8 437 -1 467 -7 433 81 433 39 0 46 -4 63 -32 10 -18 73
-109 139 -201 67 -92 153 -213 192 -268 39 -55 76 -105 82 -111 9 -9 12 67 12
315 l0 327 65 0 65 0 0 -429z"/>
<path d="M3914 6320 c-209 -32 -361 -144 -455 -336 -91 -186 -90 -380 3 -557
46 -88 164 -204 256 -250 197 -98 417 -86 596 34 181 121 275 300 276 521 0
48 -5 111 -11 140 -27 133 -129 277 -252 358 -110 72 -284 110 -413 90z"/>
<path d="M2835 4170 c-143 -17 -258 -72 -355 -171 -148 -149 -200 -336 -150
-535 42 -164 133 -291 269 -371 115 -69 177 -87 311 -87 101 -1 125 2 196 27
348 119 499 482 338 817 -41 86 -147 198 -234 248 -100 56 -255 86 -375 72z"/>
<path d="M4658 1965 c-97 -36 -148 -116 -156 -245 -11 -191 80 -330 216 -330
83 0 142 44 184 135 18 41 22 68 23 155 0 95 -3 110 -28 162 -32 65 -80 110
-136 127 -47 14 -56 13 -103 -4z"/>
</g>
</svg>
