<?xml version="1.0" standalone="no"?>
<!DOCTYPE svg PUBLIC "-//W3C//DTD SVG 20010904//EN"
 "http://www.w3.org/TR/2001/REC-SVG-20010904/DTD/svg10.dtd">
<svg version="1.0" xmlns="http://www.w3.org/2000/svg"
 width="1024.000000pt" height="1024.000000pt" viewBox="0 0 1024.000000 1024.000000"
 preserveAspectRatio="xMidYMid meet">

<g transform="translate(0.000000,1024.000000) scale(0.100000,-0.100000)"
fill="#000000" stroke="none">
<path d="M6297 8639 l-42 -42 43 37 c47 40 86 46 131 20 33 -19 246 -339 363
-544 26 -47 48 -81 48 -77 0 24 -102 193 -274 455 -111 168 -136 192 -196 192
-23 0 -42 -11 -73 -41z"/>
<path d="M6133 8413 c-209 -320 -256 -412 -252 -497 l2 -31 4 30 c15 116 59
199 298 563 30 45 52 82 50 82 -3 0 -49 -66 -102 -147z"/>
<path d="M6345 8429 c-202 -304 -295 -463 -295 -504 1 -11 9 3 18 31 19 54 58
120 213 357 l96 148 28 -48 c16 -26 61 -97 100 -158 155 -239 173 -272 188
-340 4 -16 5 -15 6 5 1 36 -35 107 -134 260 -48 74 -103 161 -123 194 -67 107
-64 105 -97 55z"/>
<path d="M4353 8004 c-37 -19 -72 -40 -78 -46 -5 -6 21 7 59 28 52 28 86 39
135 44 l66 7 -57 2 c-47 1 -68 -5 -125 -35z"/>
<path d="M4540 8026 c0 -2 7 -7 16 -10 8 -3 12 -2 9 4 -6 10 -25 14 -25 6z"/>
<path d="M6844 8006 c21 -66 28 -157 16 -225 -27 -161 -123 -282 -287 -363
-84 -42 -89 -43 -182 -43 -53 0 -112 3 -131 7 -33 7 -33 6 5 -7 22 -7 72 -14
111 -14 291 -3 541 281 495 562 -6 39 -16 77 -22 86 -9 14 -10 13 -5 -3z"/>
<path d="M4580 8006 c0 -3 9 -10 20 -16 11 -6 20 -8 20 -6 0 3 -9 10 -20 16
-11 6 -20 8 -20 6z"/>
<path d="M4630 7976 c0 -3 14 -12 30 -21 17 -9 30 -13 30 -11 0 3 -13 12 -30
21 -16 9 -30 13 -30 11z"/>
<path d="M4234 7934 c-18 -14 -18 -15 4 -4 12 6 22 13 22 15 0 8 -5 6 -26 -11z"/>
<path d="M4705 7933 c6 -6 28 -20 50 -32 22 -13 31 -15 20 -6 -22 18 -86 53
-70 38z"/>
<path d="M4153 7889 c-29 -17 -53 -33 -53 -36 0 -5 89 44 105 58 16 16 1 9
-52 -22z"/>
<path d="M6042 7870 c0 -19 2 -27 5 -17 2 9 2 25 0 35 -3 9 -5 1 -5 -18z"/>
<path d="M6703 7845 c0 -27 2 -38 4 -22 2 15 2 37 0 50 -2 12 -4 0 -4 -28z"/>
<path d="M4805 7873 c8 -8 549 -330 590 -351 7 -3 7 -2 0 5 -8 8 -546 328
-590 351 -7 3 -7 1 0 -5z"/>
<path d="M4387 7831 c-60 -36 -74 -50 -22 -23 39 20 85 52 75 51 -3 0 -26 -13
-53 -28z"/>
<path d="M4500 7857 c0 -2 53 -36 118 -74 132 -79 162 -96 162 -89 0 3 -177
109 -272 163 -5 2 -8 2 -8 0z"/>
<path d="M3953 7772 c-73 -43 -136 -82 -140 -86 -11 -12 -8 -10 145 78 112 66
143 87 130 86 -2 0 -62 -35 -135 -78z"/>
<path d="M6055 7790 c7 -55 41 -113 91 -160 l38 -35 -41 46 c-49 56 -59 73
-78 141 l-15 53 5 -45z"/>
<path d="M5882 7790 c0 -14 2 -19 5 -12 2 6 2 18 0 25 -3 6 -5 1 -5 -13z"/>
<path d="M4045 7632 c-286 -167 -540 -317 -615 -362 -25 -15 -66 -39 -92 -54
-27 -15 -48 -29 -48 -32 0 -6 34 14 285 161 319 188 474 279 613 360 112 65
144 86 130 85 -2 0 -124 -72 -273 -158z"/>
<path d="M6681 7750 c-18 -61 -118 -160 -191 -189 -30 -12 -41 -19 -25 -16 37
8 105 47 150 86 36 32 90 129 83 150 -2 7 -10 -8 -17 -31z"/>
<path d="M5895 7725 c14 -65 70 -157 131 -214 54 -50 124 -99 124 -88 0 3 -21
19 -47 35 -87 56 -149 134 -192 242 -12 30 -19 42 -16 25z"/>
<path d="M4790 7687 c0 -3 39 -29 88 -58 105 -63 102 -61 102 -56 0 3 -33 24
-72 48 -40 23 -83 49 -95 57 -13 8 -23 12 -23 9z"/>
<path d="M3774 7664 c-18 -14 -18 -15 4 -4 12 6 22 13 22 15 0 8 -5 6 -26 -11z"/>
<path d="M3572 7549 c-95 -56 -171 -103 -169 -105 2 -2 55 26 118 64 63 37
140 83 172 101 48 27 67 41 55 41 -2 0 -81 -46 -176 -101z"/>
<path d="M6190 7595 c0 -7 81 -47 86 -43 2 3 -17 14 -41 26 -25 12 -45 20 -45
17z"/>
<path d="M4990 7566 c0 -2 30 -22 68 -44 37 -21 105 -62 152 -89 128 -75 334
-195 345 -201 7 -3 7 -2 0 5 -9 9 -487 293 -542 322 -13 6 -23 10 -23 7z"/>
<path d="M6298 7543 c7 -3 16 -2 19 1 4 3 -2 6 -13 5 -11 0 -14 -3 -6 -6z"/>
<path d="M6363 7533 c15 -2 37 -2 50 0 12 2 0 4 -28 4 -27 0 -38 -2 -22 -4z"/>
<path d="M5410 7517 c0 -3 37 -26 83 -52 45 -26 97 -56 115 -67 17 -11 32 -17
32 -15 0 6 -73 50 -172 106 -32 18 -58 30 -58 28z"/>
<path d="M3355 7422 c-16 -10 -73 -44 -126 -75 -61 -35 -106 -70 -124 -94
l-28 -38 43 43 c23 23 86 67 139 97 92 52 142 84 131 85 -3 0 -18 -9 -35 -18z"/>
<path d="M6180 7405 c14 -8 30 -14 35 -14 6 0 -1 6 -15 14 -14 8 -29 14 -35
14 -5 0 1 -6 15 -14z"/>
<path d="M5650 7376 c0 -3 14 -12 30 -21 17 -9 30 -13 30 -11 0 3 -13 12 -30
21 -16 9 -30 13 -30 11z"/>
<path d="M5740 7323 c53 -38 98 -85 110 -113 7 -17 15 -29 17 -26 16 16 -77
122 -127 145 l-25 12 25 -18z"/>
<path d="M5571 7227 c3 -4 33 -24 67 -46 37 -24 64 -49 67 -63 3 -13 4 -329 3
-702 l-3 -680 -70 -41 c-38 -23 -124 -73 -190 -112 -345 -202 -571 -337 -580
-346 -16 -16 29 10 245 138 113 67 288 170 390 230 102 59 193 114 203 123 16
14 17 60 17 705 l0 690 -33 31 c-28 26 -134 92 -116 73z"/>
<path d="M3245 7156 l-30 -24 -3 -681 c-2 -576 0 -685 12 -709 12 -23 136
-104 136 -89 0 3 -25 19 -55 36 -93 53 -86 -11 -83 754 l3 676 29 30 c36 37
32 40 -9 7z"/>
<path d="M5875 6490 c0 -377 1 -531 2 -342 2 188 2 496 0 685 -1 188 -2 34 -2
-343z"/>
<path d="M3052 6430 l-2 -725 24 -45 c22 -43 88 -102 145 -132 28 -14 56 -31
381 -221 487 -285 609 -356 675 -391 147 -78 18 -2 -820 486 -306 178 -336
198 -366 250 l-24 43 -5 730 -5 730 -3 -725z"/>
<path d="M2234 6446 c-19 -8 -50 -40 -76 -78 -50 -70 -61 -88 -55 -88 2 0 28
34 57 75 75 106 136 121 199 49 39 -44 309 -450 355 -534 20 -36 36 -61 36
-56 0 20 -81 152 -221 361 -175 259 -176 261 -212 274 -36 14 -45 13 -83 -3z"/>
<path d="M1976 6098 c-122 -187 -170 -269 -180 -308 -4 -14 12 11 35 55 22 44
92 158 155 253 62 94 111 172 108 172 -2 0 -56 -78 -118 -172z"/>
<path d="M2131 6027 c-186 -286 -196 -308 -196 -417 0 -71 4 -94 26 -141 15
-31 43 -72 63 -92 43 -44 133 -97 161 -96 12 0 6 5 -16 13 -86 31 -164 102
-203 185 -32 70 -30 197 6 271 27 57 294 473 306 477 9 3 252 -375 292 -454
17 -32 34 -78 39 -103 7 -35 9 -39 10 -15 1 41 -35 124 -96 220 -76 121 -243
375 -245 375 -2 0 -68 -101 -147 -223z"/>
<path d="M2751 5800 c0 -3 6 -27 14 -54 19 -64 19 -186 0 -261 -40 -154 -159
-284 -321 -350 -32 -14 -52 -25 -44 -25 38 0 161 71 224 130 120 113 172 241
164 405 -3 51 -12 105 -21 125 -8 19 -16 33 -16 30z"/>
<path d="M1781 5744 c0 -11 3 -14 6 -6 3 7 2 16 -1 19 -3 4 -6 -2 -5 -13z"/>
<path d="M5895 5733 c11 -10 115 -72 585 -343 694 -402 710 -413 746 -494 7
-17 13 -25 14 -18 0 26 -41 91 -72 115 -45 34 -136 89 -368 222 -177 101 -537
310 -775 450 -103 60 -144 82 -130 68z"/>
<path d="M1771 5704 c0 -11 3 -14 6 -6 3 7 2 16 -1 19 -3 4 -6 -2 -5 -13z"/>
<path d="M1763 5605 c0 -38 2 -53 4 -32 2 20 2 52 0 70 -2 17 -4 1 -4 -38z"/>
<path d="M3370 5647 c0 -2 42 -29 93 -59 106 -64 137 -80 137 -75 0 2 -35 25
-77 49 -43 25 -95 56 -115 68 -21 12 -38 20 -38 17z"/>
<path d="M5740 5558 c-56 -32 -526 -306 -925 -540 -121 -71 -231 -140 -245
-154 l-25 -24 0 -688 c0 -502 3 -692 12 -707 6 -11 58 -48 115 -82 237 -142
421 -250 553 -326 77 -44 222 -129 322 -188 233 -139 255 -149 284 -142 13 4
71 34 129 68 58 34 265 155 460 270 195 114 421 246 502 294 117 68 149 92
158 115 15 43 14 1347 -2 1380 -14 31 -12 30 -273 181 -115 67 -358 209 -540
315 -424 249 -445 260 -458 260 -7 0 -37 -15 -67 -32z m135 -12 c33 -18 110
-62 170 -98 147 -87 467 -274 755 -442 129 -75 245 -148 258 -162 l22 -25 0
-669 c0 -382 -4 -679 -9 -693 -7 -18 -161 -113 -619 -381 -369 -216 -619 -356
-635 -356 -27 0 -49 12 -302 160 -88 51 -225 131 -305 178 -80 47 -170 100
-200 117 -30 18 -89 53 -130 77 -246 145 -292 173 -308 191 -16 18 -17 69 -20
689 -3 493 0 678 8 699 14 33 33 46 270 184 168 98 740 432 900 527 36 21 70
38 75 38 6 0 37 -15 70 -34z"/>
<path d="M2608 5547 c-11 -60 -43 -119 -96 -171 -26 -28 -37 -43 -24 -37 56
29 140 178 130 228 -2 10 -7 1 -10 -20z"/>
<path d="M1772 5510 c0 -14 2 -19 5 -12 2 6 2 18 0 25 -3 6 -5 1 -5 -13z"/>
<path d="M3615 5502 c6 -6 87 -55 180 -110 94 -54 247 -144 340 -199 191 -112
215 -126 215 -119 0 2 -30 22 -67 43 -147 86 -492 288 -558 328 -85 51 -123
71 -110 57z"/>
<path d="M1780 5469 c0 -40 67 -147 134 -214 66 -65 174 -136 207 -135 8 1
-13 14 -46 29 -120 56 -223 161 -271 278 -13 32 -24 51 -24 42z"/>
<path d="M2430 5315 c-14 -8 -20 -14 -14 -15 5 0 19 7 30 15 24 18 16 19 -16
0z"/>
<path d="M2365 5290 c-13 -6 -15 -9 -5 -9 8 0 22 4 30 9 18 12 2 12 -25 0z"/>
<path d="M2237 5273 c18 -2 50 -2 70 0 21 2 7 4 -32 4 -38 0 -55 -2 -38 -4z"/>
<path d="M4793 5199 c-29 -17 -53 -33 -53 -36 0 -5 89 44 105 58 16 16 1 9
-52 -22z"/>
<path d="M4620 5098 c-58 -33 -121 -67 -140 -74 -22 -8 -28 -13 -15 -14 17 0
234 118 260 141 19 19 -3 7 -105 -53z"/>
<path d="M2155 5110 c19 -8 93 -14 84 -6 -2 2 -26 6 -54 9 -32 4 -43 3 -30 -3z"/>
<path d="M2333 5103 c9 -2 25 -2 35 0 9 3 1 5 -18 5 -19 0 -27 -2 -17 -5z"/>
<path d="M2263 5093 c9 -2 23 -2 30 0 6 3 -1 5 -18 5 -16 0 -22 -2 -12 -5z"/>
<path d="M4400 5041 c24 -20 40 -26 40 -16 0 2 -15 12 -32 20 l-33 16 25 -20z"/>
<path d="M4350 4872 c0 -4 6 -14 13 -20 9 -10 13 -174 17 -725 5 -682 6 -714
25 -752 27 -54 79 -104 155 -146 36 -19 155 -89 265 -153 803 -474 886 -522
929 -536 85 -27 124 -10 601 272 641 378 784 463 811 484 18 13 44 47 58 76
l26 52 -2 720 -3 721 -5 -731 -5 -730 -27 -41 c-37 -56 -54 -68 -363 -248
-148 -87 -324 -190 -390 -230 -222 -133 -479 -282 -542 -314 -100 -50 -136
-43 -304 56 -138 82 -585 344 -719 423 -438 255 -435 253 -473 325 -22 40 -22
46 -27 750 -4 553 -8 715 -18 733 -13 22 -22 28 -22 14z"/>
<path d="M7888 4047 c-15 -14 -85 -113 -154 -219 -267 -407 -306 -487 -306
-634 0 -44 5 -99 12 -123 15 -56 22 -49 9 9 -17 73 -6 226 21 290 31 71 107
199 265 440 146 224 168 250 206 250 60 0 74 -14 172 -165 316 -486 366 -589
354 -740 -16 -219 -179 -402 -410 -461 -202 -52 -459 71 -563 270 -16 30 -30
53 -32 51 -2 -2 11 -32 30 -67 99 -187 339 -306 545 -271 103 18 205 74 289
157 165 165 198 363 96 577 -52 108 -370 609 -405 638 -10 7 -36 16 -60 18
-35 4 -47 1 -69 -20z"/>
<path d="M7931 3824 c-6 -15 -72 -120 -145 -233 -177 -274 -179 -277 -184
-384 -4 -83 -3 -91 28 -153 58 -117 160 -191 276 -199 l59 -4 -59 9 c-115 19
-216 92 -266 195 -21 42 -25 64 -25 140 0 110 1 111 191 406 74 115 134 214
134 219 0 27 24 -4 125 -166 195 -312 210 -341 226 -426 21 -116 -26 -225
-131 -303 -42 -30 -78 -47 -118 -55 -77 -16 -87 -21 -29 -15 72 7 138 40 195
98 105 107 127 237 63 377 -33 72 -305 513 -320 518 -4 1 -13 -9 -20 -24z"/>
</g>
</svg>
