<?xml version="1.0" standalone="no"?>
<!DOCTYPE svg PUBLIC "-//W3C//DTD SVG 20010904//EN"
 "http://www.w3.org/TR/2001/REC-SVG-20010904/DTD/svg10.dtd">
<svg version="1.0" xmlns="http://www.w3.org/2000/svg"
 width="1024.000000pt" height="1024.000000pt" viewBox="0 0 1024.000000 1024.000000"
 preserveAspectRatio="xMidYMid meet">

<g transform="translate(0.000000,1024.000000) scale(0.100000,-0.100000)"
fill="#000000" stroke="none">
<path d="M0 5120 l0 -5120 5120 0 5120 0 0 5120 0 5120 -5120 0 -5120 0 0
-5120z m3793 3882 c29 -25 20 -81 -38 -250 -32 -95 -52 -167 -48 -178 3 -9 36
-47 73 -83 175 -174 353 -502 444 -818 54 -187 69 -308 69 -543 0 -224 -15
-356 -59 -506 -13 -46 -24 -88 -24 -93 0 -5 33 1 73 13 152 48 259 61 477 61
160 0 224 -4 290 -18 280 -60 573 -208 771 -388 48 -44 89 -79 91 -79 3 0 8
66 11 148 11 242 67 457 181 697 100 210 340 543 497 691 54 50 184 156 228
184 l23 15 -22 135 c-12 74 -28 175 -36 224 -11 69 -12 97 -3 124 19 58 104
76 145 31 18 -20 36 -128 50 -289 3 -47 10 -95 15 -107 l8 -22 48 21 c75 33
288 87 389 99 225 25 468 -54 633 -206 32 -30 65 -55 72 -55 7 0 24 11 38 23
47 43 287 234 309 246 38 20 88 14 111 -15 35 -45 28 -78 -31 -137 -54 -53
-231 -199 -280 -231 -16 -10 -28 -23 -28 -28 0 -6 13 -38 30 -72 136 -286 167
-643 85 -990 -31 -131 -30 -133 34 -134 20 -1 95 -10 168 -21 72 -12 137 -21
143 -21 6 0 22 -11 35 -25 53 -52 19 -145 -53 -145 -18 0 -118 14 -220 30
-102 17 -189 27 -194 22 -5 -5 -42 -77 -83 -160 -82 -167 -123 -234 -230 -367
-83 -104 -167 -190 -251 -260 -33 -27 -79 -68 -104 -91 -101 -94 -290 -195
-495 -263 -224 -74 -320 -83 -527 -49 -38 6 -71 8 -74 5 -4 -3 14 -82 39 -174
55 -200 61 -231 87 -436 35 -278 24 -650 -29 -939 -21 -112 -110 -440 -143
-522 -10 -27 -16 -51 -13 -54 2 -3 22 2 42 11 21 8 67 27 102 42 74 31 125 29
154 -6 43 -53 -3 -117 -114 -157 -69 -25 -127 -49 -226 -91 l-62 -26 -166
-334 c-91 -184 -181 -357 -199 -385 -19 -28 -68 -107 -111 -174 -82 -130 -229
-338 -273 -384 l-25 -28 597 -2 598 -3 24 -28 c13 -15 24 -37 24 -47 0 -28
-19 -64 -40 -78 -15 -9 -478 -12 -1915 -12 -2078 -1 -1936 -5 -1951 55 -8 32
12 82 40 98 15 9 157 13 527 17 l506 5 -109 165 c-362 547 -460 724 -638 1155
-32 77 -74 178 -94 224 -123 284 -228 698 -243 964 -6 98 -8 110 -27 117 -12
4 -109 36 -216 70 -244 78 -248 79 -287 104 -29 18 -33 26 -33 64 0 49 33 92
71 92 13 0 118 -31 235 -70 116 -38 217 -70 223 -70 7 0 11 26 11 73 0 117 28
375 56 518 29 150 93 380 135 486 56 142 203 420 285 541 46 68 84 125 84 127
0 3 -26 5 -59 5 -132 0 -272 52 -464 173 -88 56 -141 100 -248 207 -148 147
-224 251 -310 423 -27 54 -57 101 -65 104 -9 3 -91 -7 -182 -22 -196 -34 -234
-35 -260 -11 -37 33 -32 114 7 136 10 5 75 18 147 29 71 12 152 26 179 31 l51
11 -28 110 c-36 144 -52 340 -45 549 7 198 31 321 90 469 l41 104 -50 41 c-27
22 -88 81 -137 131 -75 77 -87 94 -82 115 15 62 56 89 112 75 16 -4 74 -53
136 -113 96 -95 110 -105 119 -89 30 54 102 128 169 173 281 189 620 191 960
7 4 -2 19 31 34 74 78 218 86 234 119 248 34 15 72 10 99 -13z"/>
<path d="M2915 8646 c-141 -32 -278 -111 -339 -195 -174 -240 -243 -542 -211
-922 22 -269 72 -427 214 -684 129 -233 257 -368 475 -500 173 -104 258 -130
421 -130 140 0 192 14 301 81 245 150 356 449 341 913 -4 132 -12 206 -31 296
-93 445 -316 821 -600 1015 -55 37 -184 95 -261 116 -74 21 -238 26 -310 10z
m105 -716 c10 -5 62 -76 115 -156 74 -111 99 -157 102 -188 6 -50 -17 -83 -62
-92 -43 -8 -69 16 -143 132 -34 55 -76 117 -93 140 -41 55 -48 110 -19 147 23
29 64 36 100 17z"/>
<path d="M7460 7904 c-228 -27 -441 -127 -671 -315 -128 -105 -241 -238 -372
-439 -161 -248 -251 -474 -298 -752 -18 -102 -20 -148 -16 -273 7 -188 21
-241 95 -358 83 -129 201 -334 223 -384 13 -31 25 -44 46 -49 15 -3 64 -15
107 -26 120 -29 224 -33 351 -13 60 9 133 26 163 37 81 30 254 125 370 202
231 154 485 447 607 702 48 98 135 352 160 467 25 109 31 380 11 492 -61 354
-250 599 -528 684 -68 20 -185 32 -248 25z m239 -1123 c25 -25 36 -86 19 -110
-25 -34 -333 -303 -370 -322 -21 -10 -48 -19 -60 -19 -31 0 -67 26 -79 58 -20
53 -5 74 172 230 93 82 184 157 202 166 43 21 93 20 116 -3z"/>
<path d="M4615 6434 c-301 -44 -495 -113 -703 -251 -195 -129 -445 -419 -559
-648 -34 -67 -127 -327 -172 -481 -17 -55 -44 -177 -62 -270 -66 -355 -47
-857 47 -1229 91 -362 344 -961 562 -1330 172 -293 371 -593 454 -687 l61 -68
563 2 563 3 53 59 c156 173 439 611 598 926 57 113 113 221 124 240 100 164
285 725 320 970 47 328 49 348 43 554 -12 394 -84 721 -238 1074 -149 342
-396 663 -648 841 -144 102 -203 135 -343 191 -197 79 -294 100 -478 105 -85
2 -168 1 -185 -1z m840 -1216 c29 -13 40 -44 32 -95 -8 -50 -183 -321 -226
-350 -63 -43 -127 -21 -137 47 -5 31 4 49 75 157 44 67 89 139 100 160 30 59
66 87 118 92 7 0 24 -4 38 -11z m-1268 -1440 c153 -151 193 -203 193 -251 0
-46 -49 -92 -89 -82 -32 8 -110 83 -242 232 -80 90 -99 118 -99 143 0 42 39
80 81 80 28 0 50 -17 156 -122z"/>
</g>
</svg>
