<?xml version="1.0" standalone="no"?>
<!DOCTYPE svg PUBLIC "-//W3C//DTD SVG 20010904//EN"
 "http://www.w3.org/TR/2001/REC-SVG-20010904/DTD/svg10.dtd">
<svg version="1.0" xmlns="http://www.w3.org/2000/svg"
 width="1024.000000pt" height="1024.000000pt" viewBox="0 0 1024.000000 1024.000000"
 preserveAspectRatio="xMidYMid meet">

<g transform="translate(0.000000,1024.000000) scale(0.100000,-0.100000)"
fill="#000000" stroke="none">
<path d="M5089 8850 c-9 -5 -21 -22 -28 -37 -18 -47 -72 -265 -66 -271 3 -3 5
-2 5 1 0 4 16 66 35 138 36 137 55 172 89 167 27 -4 40 -33 78 -169 17 -60 33
-108 35 -105 5 4 -37 161 -59 221 -22 59 -51 77 -89 55z"/>
<path d="M5777 8672 c-24 -25 -318 -608 -316 -628 0 -5 67 126 148 291 81 165
160 315 175 333 34 39 29 42 -7 4z"/>
<path d="M4371 8664 c-16 -21 -21 -40 -19 -83 l1 -56 6 61 c6 66 20 90 54 97
l22 4 -22 2 c-13 0 -30 -10 -42 -25z"/>
<path d="M4475 8628 c22 -32 41 -56 43 -54 5 6 -43 79 -63 96 -10 8 -1 -11 20
-42z"/>
<path d="M5076 8489 c-20 -84 -34 -154 -32 -156 2 -2 19 58 38 134 32 124 37
135 47 113 10 -23 11 -22 5 10 -3 19 -9 39 -14 43 -4 5 -24 -60 -44 -144z"/>
<path d="M5883 8540 c0 -47 2 -66 4 -42 2 23 2 61 0 85 -2 23 -4 4 -4 -43z"/>
<path d="M4582 8435 c34 -68 64 -123 66 -121 4 5 -116 246 -123 246 -3 0 23
-56 57 -125z"/>
<path d="M5240 8556 c0 -4 20 -78 44 -164 24 -87 61 -228 82 -314 21 -86 40
-155 43 -153 2 3 12 24 23 47 l18 43 -22 -29 -21 -28 -52 203 c-74 289 -115
430 -115 395z"/>
<path d="M5142 8540 c0 -8 4 -26 8 -40 6 -20 8 -21 8 -5 0 11 -3 29 -8 40 -5
12 -8 14 -8 5z"/>
<path d="M4958 8427 c-16 -58 -28 -111 -27 -119 0 -7 14 34 30 92 16 58 28
111 26 118 -1 8 -14 -33 -29 -91z"/>
<path d="M4340 8203 c0 -305 -1 -316 -18 -297 -10 10 -65 75 -123 144 -58 69
-127 148 -153 175 l-49 50 46 -55 c26 -30 102 -121 170 -202 67 -81 125 -147
130 -147 4 -1 7 145 7 324 0 179 -2 325 -5 325 -3 0 -5 -143 -5 -317z"/>
<path d="M4442 8133 l3 -368 5 350 c4 281 7 346 17 330 7 -11 13 -17 13 -14 0
9 -31 69 -36 69 -2 0 -3 -165 -2 -367z"/>
<path d="M6448 8493 c7 -3 16 -2 19 1 4 3 -2 6 -13 5 -11 0 -14 -3 -6 -6z"/>
<path d="M3857 8428 c140 -148 145 -152 87 -83 -73 88 -126 144 -138 145 -4 0
19 -28 51 -62z"/>
<path d="M3737 8473 c-16 -15 -4 -82 39 -238 26 -91 49 -164 51 -162 2 3 -17
78 -42 168 -29 103 -45 178 -43 202 2 20 3 37 2 37 0 0 -4 -3 -7 -7z"/>
<path d="M5734 8386 c-88 -192 -287 -612 -296 -623 -16 -20 -55 -15 -72 9 -9
12 -16 18 -16 12 0 -19 36 -44 63 -44 29 0 26 -5 193 350 48 102 105 223 128
270 l41 85 5 -155 6 -155 1 150 c1 206 -2 213 -53 101z"/>
<path d="M6288 8338 c-68 -79 -151 -175 -184 -214 -32 -39 -90 -107 -129 -152
l-70 -82 -5 267 -5 268 -3 -285 -2 -285 28 35 c15 19 56 69 92 110 36 41 101
118 145 170 44 52 113 131 153 175 71 77 118 135 109 135 -2 0 -60 -64 -129
-142z"/>
<path d="M5162 8455 c29 -119 113 -415 115 -408 4 11 -106 416 -114 423 -3 3
-4 -4 -1 -15z"/>
<path d="M6511 8440 c-1 -14 -4 -36 -6 -50 l-6 -25 11 25 c6 13 9 36 7 50 l-4
25 -2 -25z"/>
<path d="M4481 8419 c-1 -4 49 -109 110 -235 61 -126 122 -254 137 -284 37
-79 74 -139 90 -145 8 -3 3 8 -10 23 -12 15 -61 107 -108 202 -148 304 -219
445 -219 439z"/>
<path d="M6491 8344 c0 -11 3 -14 6 -6 3 7 2 16 -1 19 -3 4 -6 -2 -5 -13z"/>
<path d="M5020 8270 c-7 -28 -10 -53 -8 -55 3 -3 10 18 16 47 7 28 11 53 8 55
-2 2 -9 -19 -16 -47z"/>
<path d="M6480 8316 c0 -4 -18 -73 -40 -153 -22 -80 -38 -148 -35 -151 3 -3 5
-3 5 1 0 3 18 72 40 152 23 81 38 150 35 153 -3 3 -5 2 -5 -2z"/>
<path d="M4921 8274 c0 -11 3 -14 6 -6 3 7 2 16 -1 19 -3 4 -6 -2 -5 -13z"/>
<path d="M6245 8133 c-135 -160 -190 -229 -164 -203 22 21 155 173 218 250 52
63 53 63 47 30 -4 -23 1 -16 13 20 11 30 19 55 18 56 -1 1 -60 -68 -132 -153z"/>
<path d="M4660 8276 c0 -11 30 -66 36 -66 2 0 -3 15 -12 33 -19 36 -24 44 -24
33z"/>
<path d="M3877 8248 c12 -55 77 -260 80 -251 2 5 -12 58 -32 118 -19 60 -33
110 -31 112 3 3 142 -153 196 -220 32 -39 98 -109 78 -82 -20 27 -291 345
-294 345 -1 0 0 -10 3 -22z"/>
<path d="M4906 8219 c-8 -42 0 -50 9 -9 4 17 5 34 2 36 -2 3 -7 -10 -11 -27z"/>
<path d="M4701 8199 c-1 -3 26 -63 59 -132 33 -69 60 -130 60 -136 0 -6 5 -11
10 -11 6 0 10 2 10 4 0 7 -139 281 -139 275z"/>
<path d="M4987 8128 c-9 -40 -19 -84 -22 -98 l-6 -25 11 24 c14 32 43 161 38
167 -3 2 -12 -28 -21 -68z"/>
<path d="M4892 8150 c0 -14 2 -19 5 -12 2 6 2 18 0 25 -3 6 -5 1 -5 -13z"/>
<path d="M6311 8083 c-13 -48 -26 -95 -29 -103 -3 -8 -2 -12 2 -9 9 8 58 179
54 190 -2 5 -14 -30 -27 -78z"/>
<path d="M4861 8039 c-12 -45 -20 -84 -17 -86 2 -2 13 33 26 77 12 45 20 84
17 86 -2 2 -14 -33 -26 -77z"/>
<path d="M5792 7930 c-2 -154 1 -189 14 -208 8 -12 23 -22 32 -21 12 0 11 3
-5 9 -13 5 -24 11 -25 12 -1 2 -5 91 -8 198 l-6 195 -2 -185z"/>
<path d="M3841 8014 c0 -11 3 -14 6 -6 3 7 2 16 -1 19 -3 4 -6 -2 -5 -13z"/>
<path d="M5286 8000 c4 -19 11 -44 15 -55 6 -14 7 -9 3 15 -4 19 -11 44 -15
55 -6 14 -7 9 -3 -15z"/>
<path d="M4931 7914 c-12 -48 -20 -89 -17 -91 5 -5 10 12 31 101 22 100 12 92
-14 -10z"/>
<path d="M6371 7929 c-12 -39 -21 -72 -19 -75 2 -2 14 28 27 67 12 39 21 72
19 75 -2 2 -14 -28 -27 -67z"/>
<path d="M3850 7984 c0 -23 104 -312 146 -406 75 -168 140 -255 237 -318 l57
-38 -44 -26 c-104 -61 -244 -259 -296 -416 -26 -81 -50 -193 -49 -228 0 -15 8
11 16 58 43 242 178 476 333 577 l59 39 -53 32 c-30 17 -79 59 -110 93 -72 78
-162 260 -236 479 -52 152 -60 173 -60 154z"/>
<path d="M3971 7940 c0 -8 6 -28 14 -45 17 -39 18 -21 0 25 -7 19 -14 28 -14
20z"/>
<path d="M6231 7833 c-67 -193 -156 -356 -233 -430 -18 -17 -60 -48 -92 -67
-33 -20 -55 -36 -49 -36 5 0 36 17 69 38 98 64 168 153 239 305 46 100 107
265 103 279 -2 5 -18 -35 -37 -89z"/>
<path d="M5311 7904 c0 -11 3 -14 6 -6 3 7 2 16 -1 19 -3 4 -6 -2 -5 -13z"/>
<path d="M5973 7811 c-43 -49 -87 -93 -98 -99 -13 -7 -15 -11 -6 -11 15 -1 74
58 153 152 69 82 34 51 -49 -42z"/>
<path d="M4210 7865 c13 -14 26 -25 28 -25 3 0 -5 11 -18 25 -13 14 -26 25
-28 25 -3 0 5 -11 18 -25z"/>
<path d="M4002 7848 c3 -7 13 -37 23 -66 9 -29 19 -52 21 -49 5 5 -36 127 -43
127 -3 0 -3 -6 -1 -12z"/>
<path d="M6325 7788 c-32 -99 -123 -287 -176 -363 -50 -73 -103 -124 -183
-178 -22 -14 -44 -23 -49 -20 -6 3 -7 1 -3 -5 4 -7 14 -12 22 -12 42 0 177
-124 231 -212 41 -67 52 -76 23 -19 -31 63 -111 152 -179 201 -53 38 -60 46
-45 55 46 27 124 97 167 150 67 84 183 320 211 428 11 46 -1 30 -19 -25z"/>
<path d="M4300 7765 c56 -61 60 -65 86 -65 23 0 54 29 54 51 -1 8 -8 2 -16
-13 -22 -42 -51 -35 -114 25 l-55 52 45 -50z"/>
<path d="M4901 7801 c-1 -8 -9 -24 -18 -35 -16 -20 -16 -20 6 0 13 12 21 28
18 35 -4 11 -6 11 -6 0z"/>
<path d="M4056 7700 c9 -37 90 -206 102 -214 6 -3 -4 22 -22 56 -17 35 -44 90
-59 123 -15 33 -24 49 -21 35z"/>
<path d="M4199 7433 c17 -23 46 -54 64 -69 39 -33 145 -84 172 -83 11 0 1 6
-22 14 -68 21 -134 64 -192 124 -45 46 -48 49 -22 14z"/>
<path d="M5806 7293 c-4 -5 -143 -11 -309 -14 l-302 -6 300 2 c203 0 308 4
325 12 15 7 19 12 9 12 -9 1 -19 -2 -23 -6z"/>
<path d="M4473 7273 c9 -2 25 -2 35 0 9 3 1 5 -18 5 -19 0 -27 -2 -17 -5z"/>
<path d="M4605 7270 c-33 -3 59 -4 205 -2 146 3 267 6 269 8 7 6 -409 1 -474
-6z"/>
<path d="M4637 7173 c-5 -7 330 -7 753 0 91 1 -41 4 -292 5 -251 1 -459 -1
-461 -5z"/>
<path d="M4477 7163 c18 -2 50 -2 70 0 21 2 7 4 -32 4 -38 0 -55 -2 -38 -4z"/>
<path d="M5663 7163 c20 -2 54 -2 75 0 20 2 3 4 -38 4 -41 0 -58 -2 -37 -4z"/>
<path d="M4390 7150 c-13 -9 -13 -10 0 -9 8 0 24 4 35 9 l20 9 -20 0 c-11 0
-27 -4 -35 -9z"/>
<path d="M5788 7153 c7 -3 16 -2 19 1 4 3 -2 6 -13 5 -11 0 -14 -3 -6 -6z"/>
<path d="M5828 7143 c7 -3 16 -2 19 1 4 3 -2 6 -13 5 -11 0 -14 -3 -6 -6z"/>
<path d="M4291 7099 c-76 -51 -139 -129 -197 -244 -46 -94 -95 -262 -93 -324
1 -24 5 -10 14 42 41 243 159 450 308 536 28 17 47 31 41 31 -7 0 -39 -18 -73
-41z"/>
<path d="M5901 7112 c145 -86 245 -241 301 -469 17 -69 22 -118 22 -223 0
-206 -40 -325 -140 -420 -30 -28 -53 -57 -52 -62 5 -13 120 117 141 159 9 17
27 66 39 110 31 109 31 309 0 436 -58 232 -170 410 -304 478 -55 28 -60 23 -7
-9z"/>
<path d="M6226 6895 c25 -60 64 -183 79 -250 14 -60 14 -60 9 -10 -7 62 -68
253 -89 280 -13 17 -13 14 1 -20z"/>
<path d="M5497 6759 c-17 -10 -52 -68 -45 -75 2 -2 12 12 22 31 10 19 31 39
45 44 14 5 19 10 11 10 -8 0 -23 -4 -33 -10z"/>
<path d="M5564 6743 c5 -7 12 -28 16 -46 7 -29 8 -30 9 -6 1 15 -7 35 -16 46
-10 10 -14 13 -9 6z"/>
<path d="M4654 6725 c-16 -24 -27 -220 -37 -620 l-2 -110 -77 125 c-173 282
-241 380 -260 380 -7 0 -2 -9 10 -20 30 -28 117 -160 238 -359 l99 -164 3 109
c8 374 21 633 31 651 6 12 21 24 33 26 l23 4 -22 2 c-14 0 -29 -9 -39 -24z"/>
<path d="M4743 6706 c12 -18 28 -42 35 -52 7 -11 1 5 -13 34 -14 28 -30 52
-35 52 -5 0 1 -15 13 -34z"/>
<path d="M5412 6602 c-18 -38 -32 -73 -31 -78 0 -5 16 24 35 65 19 41 33 76
31 78 -2 2 -18 -28 -35 -65z"/>
<path d="M5593 6590 c0 -41 2 -58 4 -37 2 20 2 54 0 75 -2 20 -4 3 -4 -38z"/>
<path d="M4791 6625 c0 -5 13 -35 29 -65 16 -30 29 -50 29 -45 0 6 -13 35 -29
65 -16 30 -29 51 -29 45z"/>
<path d="M6328 6465 c3 -66 6 -122 8 -124 7 -8 3 154 -5 199 -5 28 -6 -1 -3
-75z"/>
<path d="M5491 6540 c-5 -17 -7 -29 -3 -26 4 2 9 -131 11 -297 1 -166 5 -304
7 -306 2 -2 4 145 4 327 0 183 -2 332 -4 332 -2 0 -9 -14 -15 -30z"/>
<path d="M4730 6510 c0 -11 4 -20 9 -20 5 0 7 9 4 20 -3 11 -7 20 -9 20 -2 0
-4 -9 -4 -20z"/>
<path d="M3891 6439 c0 -46 4 -104 8 -129 5 -27 6 5 3 80 -6 144 -12 173 -11
49z"/>
<path d="M5307 6358 c-159 -370 -180 -418 -187 -418 -8 0 -64 118 -155 325
-56 126 -124 263 -111 225 4 -13 103 -236 226 -508 18 -40 37 -69 41 -65 16
16 262 583 256 590 -2 2 -34 -65 -70 -149z"/>
<path d="M5938 6489 c-9 -5 -49 -64 -89 -132 -144 -243 -231 -387 -234 -387
-2 0 -4 113 -5 252 0 139 -3 254 -5 257 -3 2 -5 -119 -5 -270 1 -249 2 -272
16 -254 9 11 79 126 156 255 77 129 152 247 166 263 27 29 27 32 0 16z"/>
<path d="M5991 6481 c15 -12 25 -34 30 -67 l6 -49 2 47 c1 37 -4 52 -21 68
-12 11 -26 20 -31 20 -5 0 1 -8 14 -19z"/>
<path d="M3995 6390 c3 -98 21 -217 31 -207 3 2 0 26 -6 53 -7 27 -15 96 -20
154 l-9 105 4 -105z"/>
<path d="M4220 6469 c-18 -33 -30 -80 -19 -74 5 4 9 14 9 23 0 10 7 28 16 40
9 13 14 26 11 29 -3 2 -11 -5 -17 -18z"/>
<path d="M5461 6469 c-50 -127 -234 -555 -265 -618 -14 -27 -33 -57 -43 -67
-13 -13 -14 -16 -3 -12 8 2 26 24 40 49 27 48 157 342 225 511 24 59 49 117
55 129 7 11 9 23 6 26 -3 3 -10 -5 -15 -18z"/>
<path d="M4733 6420 c0 -36 2 -50 4 -32 2 17 2 47 0 65 -2 17 -4 3 -4 -33z"/>
<path d="M4756 6460 c7 -27 34 -71 34 -55 -1 6 -10 26 -21 45 -15 26 -18 29
-13 10z"/>
<path d="M4790 6387 c0 -11 142 -332 152 -342 13 -14 1 14 -77 190 -64 143
-75 166 -75 152z"/>
<path d="M4190 6153 l-1 -208 -54 58 c-30 32 -64 75 -75 95 -14 25 -19 29 -14
12 9 -34 33 -65 98 -130 l56 -54 0 217 c0 119 -2 217 -5 217 -3 0 -5 -93 -5
-207z"/>
<path d="M6034 6165 c0 -104 2 -146 3 -92 2 54 2 139 0 190 -1 51 -3 7 -3 -98z"/>
<path d="M4720 6331 c0 -6 4 -13 10 -16 6 -3 7 1 4 9 -7 18 -14 21 -14 7z"/>
<path d="M6322 6300 c0 -19 2 -27 5 -17 2 9 2 25 0 35 -3 9 -5 1 -5 -18z"/>
<path d="M4302 6094 c-2 -225 -10 -293 -35 -295 -47 -5 -80 17 -224 148 -104
95 -203 176 -203 166 0 -10 110 -217 122 -228 6 -5 -13 33 -41 86 -28 53 -51
99 -51 103 0 11 108 -78 225 -184 107 -98 146 -118 181 -95 32 21 35 50 32
305 l-3 225 -3 -231z"/>
<path d="M3755 6293 c17 -9 64 -45 105 -79 41 -35 76 -61 78 -60 1 2 0 16 -4
32 -6 23 -8 25 -13 10 -6 -15 -13 -12 -51 22 -56 49 -119 92 -134 92 -6 -1 3
-8 19 -17z"/>
<path d="M5898 6245 c-52 -99 -173 -297 -238 -387 -56 -78 -72 -88 -113 -67
-21 10 -21 10 -3 -5 38 -31 61 -20 113 52 53 71 158 239 213 336 18 33 42 68
52 78 11 11 18 29 16 41 -3 17 -12 6 -40 -48z"/>
<path d="M6386 6244 l-77 -66 6 39 5 38 -14 -45 c-9 -24 -13 -46 -11 -49 3 -2
34 22 70 54 37 32 83 66 103 76 26 14 31 19 16 19 -12 0 -56 -30 -98 -66z"/>
<path d="M3695 6289 c-11 -16 -1 -19 13 -3 7 8 8 14 3 14 -5 0 -13 -5 -16 -11z"/>
<path d="M6519 6288 c9 -12 11 -31 7 -55 -4 -27 -3 -32 4 -18 14 32 11 61 -7
76 -16 13 -17 12 -4 -3z"/>
<path d="M4722 6075 c-2 -187 -5 -225 -20 -255 -24 -48 -46 -49 -89 -3 -20 21
-31 28 -25 16 14 -25 59 -63 77 -63 6 0 22 12 36 26 23 25 24 31 27 212 2 103
2 210 0 237 -3 28 -5 -49 -6 -170z"/>
<path d="M4320 6277 c0 -12 199 -347 206 -347 6 0 -6 22 -66 119 -27 46 -50
84 -50 86 0 3 -80 137 -86 144 -2 2 -4 2 -4 -2z"/>
<path d="M3912 6240 c0 -14 2 -19 5 -12 2 6 2 18 0 25 -3 6 -5 1 -5 -13z"/>
<path d="M5932 6049 c-2 -174 0 -208 14 -225 8 -10 12 -12 7 -4 -4 8 -10 110
-13 225 l-6 210 -2 -206z"/>
<path d="M3690 6236 c0 -13 68 -181 108 -266 44 -94 159 -274 230 -360 69 -84
174 -182 255 -238 211 -146 471 -243 694 -258 l93 -7 3 -1886 2 -1886 3 1893
2 1892 -46 0 c-85 0 -248 31 -369 71 -212 70 -383 176 -545 338 -159 159 -294
374 -387 616 -34 87 -43 106 -43 91z"/>
<path d="M6485 6118 c-114 -300 -309 -567 -542 -742 -159 -119 -384 -212 -598
-246 l-60 -9 67 5 c128 9 347 86 493 172 218 129 438 369 560 612 50 100 119
270 112 276 -3 3 -17 -28 -32 -68z"/>
<path d="M4031 6154 c0 -11 3 -14 6 -6 3 7 2 16 -1 19 -3 4 -6 -2 -5 -13z"/>
<path d="M6311 6063 c-41 -30 -107 -88 -147 -129 -78 -78 -135 -119 -175 -127
-24 -4 -24 -4 2 -6 34 -1 92 41 199 143 84 81 150 136 164 136 14 0 -116 -239
-173 -316 -186 -255 -441 -433 -721 -504 -63 -16 -106 -29 -96 -30 47 -1 230
57 324 103 233 112 438 305 575 539 37 62 130 249 124 247 -1 0 -35 -25 -76
-56z"/>
<path d="M4950 6025 c0 -11 107 -223 122 -242 6 -7 16 -13 22 -13 6 0 5 4 -3
9 -7 5 -42 64 -77 132 -35 68 -63 120 -64 114z"/>
<path d="M4539 5902 c5 -10 18 -25 28 -33 12 -10 11 -5 -6 19 -24 35 -38 43
-22 14z"/>
<path d="M5513 5865 c0 -22 2 -30 4 -17 2 12 2 30 0 40 -3 9 -5 -1 -4 -23z"/>
<path d="M3989 5834 c77 -130 237 -299 371 -390 126 -87 365 -195 427 -194 10
1 -27 16 -82 34 -284 94 -524 277 -690 529 -42 63 -59 77 -26 21z"/>
<path d="M1886 5611 c-10 -11 -16 -26 -13 -33 4 -9 6 -7 6 4 1 9 11 24 23 32
12 9 18 16 12 16 -6 0 -19 -9 -28 -19z"/>
<path d="M1950 5620 c8 -6 103 -55 210 -109 399 -201 637 -359 815 -540 33
-34 65 -61 71 -61 14 0 116 91 198 178 97 102 57 70 -67 -53 -63 -63 -119
-115 -124 -115 -6 0 -45 33 -89 73 -170 158 -247 217 -414 319 -80 49 -316
175 -445 239 -156 77 -180 88 -155 69z"/>
<path d="M8264 5614 c-19 -15 -19 -15 1 -6 11 5 27 12 35 15 13 5 13 6 -1 6
-8 1 -24 -6 -35 -15z"/>
<path d="M8351 5609 c17 -17 20 -29 16 -67 l-6 -47 11 42 c9 35 8 47 -6 68 -9
14 -21 25 -26 25 -6 0 -1 -9 11 -21z"/>
<path d="M8025 5496 c-350 -179 -555 -314 -749 -493 -49 -46 -93 -83 -98 -83
-4 0 -64 54 -133 121 -86 83 -131 119 -141 115 -9 -3 -17 -6 -19 -6 -11 0 -27
-48 -41 -122 -57 -306 -211 -734 -293 -812 l-27 -26 -50 16 c-81 28 -153 84
-234 183 -41 51 -83 97 -93 103 -22 12 -54 2 -66 -21 -11 -20 -52 -247 -50
-277 1 -20 21 74 40 194 16 101 46 127 92 79 12 -13 47 -55 77 -95 63 -82 144
-144 226 -172 52 -18 60 -19 80 -5 82 54 242 485 310 839 17 83 32 116 56 116
6 0 65 -54 130 -120 66 -66 127 -120 134 -120 8 0 61 42 118 94 212 191 391
308 739 482 184 93 225 116 200 113 -5 0 -98 -46 -208 -103z"/>
<path d="M1875 5520 c2 -25 11 -65 20 -90 12 -38 14 -39 9 -10 -4 19 -13 60
-20 90 -14 54 -14 54 -9 10z"/>
<path d="M1983 5484 c3 -11 22 -82 43 -159 93 -349 219 -632 402 -899 45 -66
82 -127 82 -136 0 -33 -45 -60 -204 -122 -56 -21 -88 -36 -72 -33 56 12 237
88 261 111 14 13 25 33 25 45 0 11 -34 70 -75 129 -184 267 -315 557 -411 913
-18 71 -34 133 -34 138 0 5 46 -15 103 -45 56 -29 136 -71 177 -92 215 -110
425 -255 585 -404 144 -134 163 -146 211 -130 19 6 34 17 34 23 0 8 -4 7 -12
-1 -20 -20 -72 -14 -106 12 -18 13 -61 50 -95 82 -149 140 -296 248 -492 361
-58 34 -390 209 -419 222 -4 2 -6 -5 -3 -15z"/>
<path d="M8055 5397 c-358 -184 -483 -266 -695 -457 -80 -72 -154 -133 -166
-136 -33 -8 -71 16 -166 109 l-87 84 -11 -54 c-7 -30 -10 -57 -7 -59 3 -3 8
14 12 38 4 24 9 46 11 49 2 4 37 -27 76 -68 70 -72 129 -113 164 -113 20 0 89
54 197 155 136 128 285 234 462 330 151 81 398 206 401 202 5 -5 -54 -220 -98
-357 -79 -244 -179 -447 -334 -680 -46 -70 -84 -131 -84 -136 0 -15 163 235
224 344 76 136 139 278 193 437 48 140 116 390 111 405 -2 5 -93 -37 -203 -93z"/>
<path d="M8336 5410 c-10 -47 -36 -143 -58 -214 -21 -70 -37 -130 -35 -132 11
-12 121 385 115 415 -2 9 -12 -22 -22 -69z"/>
<path d="M1911 5365 c0 -11 4 -29 9 -40 l9 -20 0 20 c0 11 -4 29 -9 40 l-9 20
0 -20z"/>
<path d="M1931 5290 c0 -8 4 -24 9 -35 5 -13 9 -14 9 -5 0 8 -4 24 -9 35 -5
13 -9 14 -9 5z"/>
<path d="M4830 5240 c14 -4 36 -8 50 -8 22 0 22 1 -5 8 -16 4 -39 8 -50 8 -16
0 -15 -2 5 -8z"/>
<path d="M1951 5214 c0 -11 3 -14 6 -6 3 7 2 16 -1 19 -3 4 -6 -2 -5 -13z"/>
<path d="M4928 5223 c12 -2 30 -2 40 0 9 3 -1 5 -23 4 -22 0 -30 -2 -17 -4z"/>
<path d="M5293 5223 c9 -2 25 -2 35 0 9 3 1 5 -18 5 -19 0 -27 -2 -17 -5z"/>
<path d="M5052 5213 c37 -2 100 -2 140 0 40 1 10 3 -67 3 -77 0 -110 -1 -73
-3z"/>
<path d="M3343 5129 c8 -13 21 -51 27 -84 44 -223 133 -499 218 -677 88 -185
113 -203 218 -154 68 31 125 84 192 176 64 87 78 100 109 100 32 0 42 -25 74
-180 16 -74 26 -112 23 -85 -11 100 -44 238 -60 256 -18 20 -40 24 -69 13 -9
-4 -47 -48 -84 -98 -88 -119 -192 -196 -265 -196 -33 0 -67 43 -116 144 -89
185 -146 352 -201 591 -40 171 -51 208 -67 213 -11 3 -11 -1 1 -19z"/>
<path d="M1980 5124 c0 -13 40 -129 73 -209 94 -229 185 -400 289 -541 44 -58
46 -70 17 -79 -11 -4 -18 -9 -16 -12 3 -2 17 1 31 9 l25 13 -85 130 c-120 183
-184 311 -285 575 -27 69 -49 120 -49 114z"/>
<path d="M5177 5113 c-4 -3 -7 -848 -7 -1876 0 -1029 2 -1868 5 -1865 3 3 5
845 5 1871 l0 1866 52 4 53 3 -51 2 c-28 1 -54 -1 -57 -5z"/>
<path d="M8215 5000 c-53 -162 -160 -376 -297 -593 -37 -60 -68 -111 -68 -113
0 -2 5 -4 12 -4 6 0 9 3 6 6 -3 3 32 65 79 137 118 185 303 573 290 611 -2 6
-12 -14 -22 -44z"/>
<path d="M3200 4912 c-93 -95 -82 -93 17 2 34 33 64 58 65 55 2 -2 16 -56 32
-119 36 -145 96 -324 153 -460 68 -158 89 -196 142 -250 49 -52 70 -58 161
-51 54 4 154 66 230 141 41 41 78 74 82 73 5 -2 8 9 7 25 l0 27 -17 -25 c-9
-14 -46 -55 -81 -93 -87 -91 -177 -137 -268 -137 -62 0 -65 1 -106 43 -88 87
-248 489 -311 780 -10 42 -18 77 -19 76 -1 0 -40 -39 -87 -87z"/>
<path d="M6891 4778 c-60 -238 -203 -578 -270 -642 -53 -50 -145 -51 -248 -1
-58 29 -151 109 -193 167 l-27 37 -23 -145 c-12 -80 -20 -147 -17 -150 2 -3
12 48 22 113 9 65 19 124 21 131 2 8 32 -16 73 -57 81 -80 165 -126 259 -141
65 -11 89 -4 137 37 28 25 86 123 125 213 70 160 177 494 168 521 -2 5 -14
-32 -27 -83z"/>
<path d="M2846 4484 c-9 -8 -16 -24 -16 -34 0 -11 40 -72 90 -137 174 -229
228 -299 370 -482 171 -221 458 -618 625 -866 67 -99 142 -209 166 -245 43
-62 155 -238 402 -630 61 -96 121 -192 135 -213 32 -48 23 -56 -19 -19 -159
137 -422 278 -696 372 -126 44 -312 95 -319 87 -2 -2 44 -17 103 -32 269 -70
580 -204 760 -326 26 -18 89 -65 138 -104 120 -95 120 -95 72 -20 -23 37 -78
123 -123 193 -45 70 -143 226 -219 347 -173 275 -389 597 -637 949 -95 134
-384 520 -598 796 -261 337 -261 338 -221 360 42 22 39 26 250 -248 86 -112
199 -259 251 -327 386 -500 805 -1106 1150 -1663 35 -56 65 -101 66 -99 2 2
-1 16 -5 33 -5 16 -10 25 -10 20 -1 -14 -32 30 -101 144 -87 144 -460 706
-610 920 -142 201 -332 458 -500 675 -64 83 -176 229 -249 325 -74 96 -148
190 -165 208 -33 35 -66 41 -90 16z"/>
<path d="M7322 4483 c-11 -10 -71 -83 -134 -163 -63 -80 -155 -197 -205 -260
-183 -232 -443 -585 -721 -980 -158 -225 -429 -635 -543 -823 -27 -44 -49 -77
-49 -72 0 4 9 57 21 116 11 60 18 121 16 136 -4 25 -4 24 -6 -7 -1 -19 -13
-91 -26 -160 -14 -69 -25 -129 -25 -134 0 -4 58 83 128 195 168 267 354 548
485 734 289 410 535 745 709 965 264 333 343 431 359 446 26 23 65 11 77 -23
7 -18 11 -22 11 -10 1 22 -34 57 -58 57 -10 0 -28 -8 -39 -17z"/>
<path d="M7327 4328 c-254 -311 -620 -793 -862 -1136 -176 -247 -615 -910
-798 -1202 -43 -69 -92 -143 -110 -165 -30 -38 -17 -34 28 8 36 33 188 138
280 192 185 109 388 187 703 270 100 27 180 50 178 52 -10 11 -452 -115 -566
-161 -199 -80 -335 -153 -474 -252 -97 -70 -125 -83 -95 -47 9 10 51 74 94
143 77 122 128 201 313 485 318 489 720 1051 1037 1452 44 56 118 150 165 210
47 59 109 136 138 171 30 35 52 66 49 68 -2 2 -38 -37 -80 -88z"/>
<path d="M4091 4269 c-1 -34 61 -379 100 -553 51 -229 90 -331 139 -366 41
-29 104 -24 213 18 42 17 77 28 77 25 0 -2 -9 -40 -20 -82 -41 -160 -81 -396
-79 -460 0 -14 11 42 24 124 22 148 68 365 86 413 5 14 8 26 6 28 -2 2 -40
-12 -85 -32 -45 -20 -106 -38 -135 -41 -47 -5 -56 -2 -85 22 -18 15 -40 44
-48 64 -37 87 -88 289 -125 496 -58 321 -68 368 -68 344z"/>
<path d="M7736 4263 c20 -35 93 -73 229 -118 44 -15 82 -29 84 -30 1 -2 -46
-28 -105 -57 -209 -103 -487 -292 -611 -416 -84 -83 -133 -163 -133 -217 0
-81 139 -198 315 -265 52 -20 22 0 -67 43 -114 56 -169 95 -208 149 -55 75
-33 143 84 266 118 123 382 305 629 432 l127 66 -82 29 c-157 53 -227 86 -254
118 l-26 32 18 -32z"/>
<path d="M7881 4286 c6 -7 163 -64 236 -87 132 -41 136 -80 16 -151 -43 -25
-98 -56 -123 -68 -86 -43 -325 -188 -414 -251 -119 -85 -248 -208 -271 -258
-35 -78 4 -112 287 -245 78 -37 95 -57 83 -96 -11 -35 -166 -111 -500 -245
-307 -123 -475 -226 -475 -292 0 -39 53 -105 114 -143 96 -59 110 -73 102
-103 -3 -15 -19 -33 -34 -41 -40 -20 -200 -71 -322 -101 -122 -30 -272 -76
-266 -82 2 -2 57 12 122 31 66 19 180 51 254 71 212 56 271 91 256 151 -4 14
-22 32 -44 43 -94 48 -172 129 -172 180 0 51 178 158 445 266 258 104 464 198
500 227 36 30 43 55 24 89 -6 11 -68 48 -144 83 -157 75 -223 118 -231 151
-25 99 293 347 761 594 114 60 145 85 145 116 0 36 -32 55 -191 111 -147 53
-167 59 -158 50z"/>
<path d="M2185 4231 c-71 -26 -140 -53 -152 -59 -39 -21 -25 -23 20 -2 23 11
89 36 147 56 102 35 146 54 125 53 -5 0 -68 -22 -140 -48z"/>
<path d="M4216 4120 c3 -30 21 -133 40 -228 61 -301 104 -445 139 -458 19 -8
98 18 191 62 104 49 154 46 154 -10 0 -18 -18 -102 -39 -188 -40 -156 -76
-358 -69 -379 2 -7 14 51 27 127 12 76 38 198 57 271 36 141 41 192 22 211
-23 23 -84 13 -169 -27 -46 -22 -104 -45 -128 -52 -40 -12 -45 -11 -57 6 -24
33 -65 184 -109 405 -24 118 -48 238 -54 265 l-10 50 5 -55z"/>
<path d="M6022 4145 c0 -16 2 -22 5 -12 2 9 2 23 0 30 -3 6 -5 -1 -5 -18z"/>
<path d="M2000 4123 c0 -27 52 -65 175 -129 432 -225 764 -478 741 -568 -11
-43 -114 -107 -279 -176 -140 -58 -172 -108 -99 -154 69 -43 142 -77 388 -177
278 -113 421 -182 511 -246 63 -44 81 -73 68 -112 -7 -24 -97 -106 -139 -128
-47 -23 -76 -54 -76 -79 0 -50 86 -89 344 -159 606 -163 1012 -433 1336 -890
70 -98 110 -150 110 -141 0 3 -31 50 -70 104 -200 280 -362 442 -600 601 -234
156 -444 245 -835 355 -88 24 -180 53 -205 64 -97 41 -93 79 16 147 81 51 134
111 134 153 0 70 -210 189 -615 352 -276 110 -383 164 -392 198 -8 31 15 53
84 82 106 43 237 112 280 147 78 63 68 99 -65 224 -120 114 -308 238 -605 397
-122 66 -183 104 -192 121 -8 14 -14 21 -15 14z"/>
<path d="M2269 4059 c210 -110 467 -276 583 -375 76 -64 157 -163 170 -206 28
-94 -41 -171 -240 -271 -67 -33 -119 -64 -115 -68 5 -4 116 -50 248 -104 472
-191 632 -282 688 -390 9 -16 16 -25 16 -20 0 6 -5 19 -12 31 -63 108 -215
197 -617 359 -113 46 -229 93 -258 106 l-52 22 109 55 c166 83 251 163 251
236 0 69 -86 184 -214 285 -128 102 -425 287 -597 372 -104 52 -77 30 40 -32z"/>
<path d="M6012 4085 c0 -16 2 -22 5 -12 2 9 2 23 0 30 -3 6 -5 -1 -5 -18z"/>
<path d="M5986 3948 c-43 -247 -103 -475 -132 -499 -18 -15 -109 8 -186 47
-27 14 -53 23 -56 20 -9 -9 118 -63 182 -77 55 -12 59 -11 73 7 31 42 111 364
139 557 12 88 -2 48 -20 -55z"/>
<path d="M6076 3885 c-59 -315 -107 -473 -156 -520 -28 -26 -33 -28 -92 -22
-53 5 -128 29 -232 72 -21 9 -23 20 19 -125 14 -47 23 -67 19 -45 -3 22 -12
64 -21 92 -9 29 -14 55 -12 58 3 2 41 -10 85 -27 98 -38 192 -48 229 -24 34
22 59 74 94 197 35 119 104 452 99 476 -2 10 -16 -50 -32 -132z"/>
<path d="M5536 3541 c10 -10 72 -26 63 -17 -4 4 -21 11 -39 16 -19 5 -29 6
-24 1z"/>
<path d="M5485 3526 c-27 -19 -23 -70 14 -198 63 -216 101 -451 111 -668 7
-173 7 -173 8 -52 1 67 -3 166 -9 220 -14 127 -62 370 -99 500 -37 126 -39
175 -8 196 12 9 18 16 12 16 -6 0 -19 -6 -29 -14z"/>
<path d="M5640 3197 c0 -3 11 -70 25 -149 29 -166 41 -289 44 -443 1 -60 4
-111 7 -114 10 -10 3 235 -11 359 -14 123 -51 339 -61 349 -2 2 -4 2 -4 -2z"/>
<path d="M7550 3139 c0 -5 5 -7 10 -4 6 3 10 8 10 11 0 2 -4 4 -10 4 -5 0 -10
-5 -10 -11z"/>
<path d="M7480 3114 c-61 -28 -441 -184 -446 -184 -14 0 -234 -116 -283 -149
-95 -65 -141 -130 -141 -198 0 -46 40 -112 101 -165 32 -28 56 -55 53 -60 -3
-4 5 -8 18 -8 21 0 20 2 -12 27 -223 170 -196 306 89 456 88 47 173 84 466
204 160 65 219 92 200 92 -5 0 -26 -7 -45 -15z"/>
<path d="M4616 2824 c-3 -43 -5 -136 -4 -208 1 -120 2 -114 9 74 4 113 6 206
5 208 -2 1 -6 -32 -10 -74z"/>
<path d="M4513 2645 c0 -93 4 -190 7 -215 3 -25 4 47 2 160 -2 113 -5 210 -7
215 -2 6 -3 -66 -2 -160z"/>
<path d="M3621 2585 c-2 -46 -56 -131 -111 -174 -27 -22 -55 -41 -62 -44 -7
-2 -10 -8 -6 -12 7 -8 17 -1 92 67 60 54 99 125 93 165 l-4 28 -2 -30z"/>
<path d="M4621 2445 c-1 -43 27 -217 36 -225 3 -3 2 15 -2 40 -4 25 -13 86
-20 135 -8 57 -13 75 -14 50z"/>
<path d="M5600 2443 c0 -21 -7 -74 -14 -118 -25 -137 -26 -153 -6 -75 20 77
38 230 26 230 -3 0 -6 -17 -6 -37z"/>
<path d="M4536 2322 c3 -35 9 -73 14 -85 13 -32 11 -2 -6 78 l-14 70 6 -63z"/>
<path d="M3490 2341 c8 -5 31 -11 50 -15 24 -4 28 -3 15 2 -31 14 -83 24 -65
13z"/>
<path d="M4666 2175 c11 -74 75 -279 116 -373 45 -103 117 -227 177 -306 21
-28 46 -64 56 -79 10 -15 20 -26 22 -23 3 2 -25 46 -61 96 -144 199 -201 323
-287 625 -16 55 -26 82 -23 60z"/>
<path d="M5546 2135 c-13 -65 -67 -217 -117 -327 -53 -117 -85 -172 -164 -288
-88 -128 -90 -141 -3 -20 75 105 122 185 170 287 68 147 140 364 125 379 -2 3
-8 -11 -11 -31z"/>
<path d="M6255 2108 c-126 -44 -311 -136 -440 -219 -219 -142 -378 -302 -565
-569 -40 -58 -85 -118 -99 -134 -16 -17 -20 -27 -11 -24 8 2 52 57 96 122 100
144 166 227 258 324 187 197 446 368 710 469 50 19 92 36 95 38 7 7 -11 4 -44
-7z"/>
</g>
</svg>
