<?xml version="1.0" standalone="no"?>
<!DOCTYPE svg PUBLIC "-//W3C//DTD SVG 20010904//EN"
 "http://www.w3.org/TR/2001/REC-SVG-20010904/DTD/svg10.dtd">
<svg version="1.0" xmlns="http://www.w3.org/2000/svg"
 width="1024.000000pt" height="1024.000000pt" viewBox="0 0 1024.000000 1024.000000"
 preserveAspectRatio="xMidYMid meet">

<g transform="translate(0.000000,1024.000000) scale(0.100000,-0.100000)"
fill="#000000" stroke="none">
<path d="M0 5120 l0 -5120 5120 0 5120 0 0 5120 0 5120 -5120 0 -5120 0 0
-5120z m2247 1059 c155 -21 265 -100 313 -224 21 -56 22 -73 21 -270 -1 -115
1 -268 5 -339 l7 -129 39 -43 c71 -77 49 -143 -70 -207 -113 -61 -158 -52
-231 44 l-33 45 -27 -26 c-97 -97 -271 -134 -417 -89 -56 17 -77 31 -124 78
-75 75 -95 130 -95 266 0 88 4 107 28 160 69 148 193 214 470 250 65 8 120 15
123 15 2 0 4 30 4 68 0 100 -40 142 -135 142 -79 0 -134 -43 -155 -122 -6 -21
-18 -42 -26 -45 -8 -3 -67 -1 -131 6 -161 15 -178 35 -132 156 42 114 185 227
319 254 30 6 64 13 75 15 39 7 94 6 172 -5z m1216 -3 c66 -15 113 -45 155 -98
l29 -37 39 40 c21 22 68 54 104 72 60 30 72 32 165 32 89 0 105 -3 150 -27 28
-14 64 -41 81 -60 92 -100 94 -115 94 -659 l0 -458 -26 -20 c-23 -18 -41 -21
-131 -21 -99 0 -138 9 -155 34 -4 6 -8 182 -8 391 0 228 -4 395 -10 417 -31
110 -173 118 -226 12 -18 -36 -19 -68 -22 -426 l-3 -387 -26 -21 c-22 -17 -40
-20 -133 -20 -93 0 -111 3 -134 21 l-26 20 0 392 c0 360 -2 395 -19 433 -47
103 -185 76 -226 -44 -12 -38 -15 -108 -15 -413 l0 -368 -26 -20 c-23 -18 -41
-21 -136 -21 -108 0 -110 0 -139 29 l-29 30 2 559 c3 534 4 561 22 581 17 19
30 21 134 21 105 0 118 -2 139 -22 13 -12 23 -32 23 -46 0 -24 1 -23 41 13 85
76 189 100 312 71z m1585 4 c172 -28 274 -109 316 -250 13 -44 16 -111 16
-376 l0 -323 45 -51 c60 -67 60 -97 3 -155 -42 -41 -134 -85 -179 -85 -39 0
-91 33 -117 74 -14 23 -27 43 -29 45 -1 2 -23 -15 -48 -37 -60 -52 -118 -79
-203 -92 -128 -20 -263 18 -330 95 -124 141 -121 394 6 523 86 86 198 128 417
154 l110 14 3 59 c4 103 -36 145 -142 145 -77 0 -115 -29 -141 -105 l-21 -60
-72 1 c-107 2 -180 14 -197 30 -25 26 -18 86 20 161 92 185 297 273 543 233z
m2047 0 c195 -29 333 -162 397 -385 19 -69 22 -103 22 -245 0 -126 -4 -180
-17 -230 -71 -260 -242 -400 -488 -400 -237 0 -403 137 -471 389 -28 103 -31
370 -5 475 60 242 238 396 467 405 14 0 57 -4 95 -9z m1272 -20 c62 -26 126
-92 154 -157 33 -77 39 -163 39 -599 0 -508 18 -459 -166 -459 -105 0 -126 3
-141 18 -17 16 -18 49 -20 409 -2 250 -7 403 -14 425 -15 46 -53 73 -103 73
-56 0 -99 -29 -127 -87 -24 -48 -24 -50 -27 -428 -3 -456 13 -415 -157 -415
-98 0 -116 3 -139 21 l-26 20 0 571 c0 518 2 573 17 590 14 15 33 18 136 18
131 0 157 -9 157 -57 0 -30 4 -29 53 12 87 75 250 95 364 45z m-1945 -17 c15
-13 18 -32 18 -109 l0 -93 -109 -165 c-60 -90 -157 -228 -215 -307 -58 -78
-106 -146 -106 -150 0 -5 38 -9 84 -9 111 0 224 -22 289 -57 63 -34 76 -63 76
-179 1 -68 -2 -86 -20 -108 -25 -32 -44 -32 -133 -2 -176 61 -459 59 -637 -3
-46 -15 -61 -17 -80 -7 -23 11 -24 18 -29 126 -3 63 -2 126 1 140 4 14 56 95
116 182 129 183 303 452 303 467 0 7 -54 11 -164 11 l-165 0 -20 26 c-18 22
-21 41 -21 114 0 73 3 92 21 114 l20 26 376 0 c336 0 378 -2 395 -17z m-178
-1316 c64 -42 74 -115 37 -271 -47 -196 -160 -380 -257 -416 -27 -11 -70 4
-79 27 -3 8 10 54 30 102 59 148 95 335 71 365 -18 22 -119 27 -282 15 -176
-14 -187 -11 -182 50 3 34 6 37 78 67 145 60 274 84 441 80 90 -1 122 -6 143
-19z m-3456 -105 c490 -267 976 -402 1550 -431 496 -26 945 47 1368 222 62 26
130 49 152 53 37 6 44 3 72 -24 63 -64 31 -111 -155 -221 -281 -167 -584 -272
-945 -328 -145 -22 -575 -25 -720 -5 -501 70 -902 235 -1295 533 -197 149
-189 141 -186 197 1 20 32 62 46 62 3 0 54 -26 113 -58z"/>
<path d="M2022 6120 c-102 -22 -204 -85 -253 -157 -35 -50 -63 -123 -52 -134
5 -4 51 -10 104 -14 l97 -7 6 30 c10 43 70 108 114 123 58 19 151 15 199 -9
60 -31 83 -84 83 -195 0 -47 -4 -88 -8 -91 -4 -2 -55 -10 -112 -16 -287 -31
-417 -89 -482 -213 -26 -50 -37 -198 -19 -262 18 -70 62 -127 122 -160 50 -28
61 -30 159 -30 95 0 111 3 168 29 46 21 78 46 117 89 51 57 75 67 75 29 0 -31
48 -120 74 -137 21 -14 31 -15 63 -5 60 19 123 59 135 86 10 22 7 29 -25 62
-21 21 -42 54 -47 73 -6 19 -10 169 -10 339 0 173 -5 324 -11 350 -21 92 -94
171 -191 206 -51 19 -243 27 -306 14z m293 -685 c-1 -169 -26 -229 -119 -278
-57 -30 -172 -31 -212 -1 -46 34 -65 67 -71 125 -10 102 30 186 108 227 52 26
180 51 249 49 l45 -2 0 -120z"/>
<path d="M2141 5485 c-77 -14 -111 -32 -144 -77 -25 -34 -34 -118 -17 -159 29
-70 158 -78 229 -15 38 34 51 78 51 176 0 104 9 98 -119 75z"/>
<path d="M3270 6113 c-32 -11 -67 -38 -123 -95 -87 -89 -90 -88 -91 17 l-1 60
-102 3 -103 3 0 -551 0 -551 106 3 105 3 -1 327 c0 190 4 356 10 395 21 133
86 198 197 198 76 0 107 -20 143 -91 l25 -49 3 -392 4 -393 98 0 99 0 3 383
c3 343 5 386 22 424 51 119 207 161 289 79 58 -57 60 -74 64 -496 l4 -385 102
0 102 0 -3 450 c-3 500 -6 521 -66 591 -54 63 -120 87 -221 82 -102 -5 -169
-39 -234 -119 -58 -70 -74 -73 -100 -15 -11 26 -35 60 -53 76 -61 56 -184 75
-278 43z"/>
<path d="M4790 6115 c-72 -20 -155 -71 -191 -117 -36 -45 -83 -144 -76 -162 3
-8 32 -15 74 -19 119 -12 118 -12 132 33 31 103 151 155 273 118 81 -24 118
-93 118 -222 0 -78 -3 -81 -113 -90 -123 -9 -276 -44 -344 -77 -128 -62 -179
-158 -171 -323 5 -106 24 -152 86 -208 55 -49 101 -63 212 -63 88 0 101 3 164
34 51 25 78 46 109 87 23 30 47 54 53 54 6 0 21 -27 33 -59 13 -35 34 -70 51
-85 27 -22 34 -23 67 -14 77 21 143 66 143 98 0 9 -13 29 -29 44 -16 16 -34
40 -40 55 -6 15 -12 161 -14 356 -3 312 -4 333 -25 385 -27 69 -79 121 -157
156 -53 25 -74 28 -180 31 -85 2 -136 -2 -175 -12z m318 -557 c15 -15 16 -130
1 -218 -21 -135 -99 -204 -229 -204 -123 0 -170 49 -170 174 0 160 74 224 290
249 41 5 80 9 86 10 5 0 15 -4 22 -11z"/>
<path d="M4982 5499 c-133 -17 -192 -56 -212 -139 -25 -102 11 -160 102 -167
41 -3 63 1 97 19 65 33 84 78 89 200 3 54 0 97 -4 97 -5 -1 -37 -5 -72 -10z"/>
<path d="M6905 6117 c-157 -40 -264 -149 -311 -318 -9 -31 -18 -117 -21 -205
-6 -174 9 -278 57 -381 99 -213 357 -301 578 -196 184 87 282 335 251 637 -24
238 -115 384 -279 447 -69 26 -205 34 -275 16z m193 -163 c82 -34 120 -102
143 -253 15 -108 7 -307 -16 -388 -67 -236 -340 -244 -410 -13 -17 55 -20 94
-20 260 1 180 2 199 24 253 27 68 73 124 116 143 41 18 118 17 163 -2z"/>
<path d="M6965 5905 c-22 -8 -46 -22 -53 -32 -51 -66 -78 -210 -69 -374 7
-133 29 -217 71 -265 28 -33 39 -38 87 -41 135 -10 192 95 192 357 0 132 -13
216 -46 280 -36 71 -109 101 -182 75z"/>
<path d="M8140 6121 c-77 -25 -156 -88 -190 -150 -6 -12 -20 -21 -30 -21 -18
0 -20 7 -20 75 l0 75 -105 0 -105 0 2 -547 3 -548 105 0 105 0 5 380 c5 358 6
383 26 425 29 62 82 107 139 115 93 14 157 -18 191 -97 17 -39 19 -81 24 -433
l5 -390 103 -3 103 -3 -3 463 c-3 459 -3 463 -26 513 -47 102 -115 147 -232
151 -41 2 -86 0 -100 -5z"/>
<path d="M5670 6020 l0 -80 204 0 c153 0 205 -3 208 -12 3 -7 -29 -64 -70
-128 -121 -186 -276 -419 -341 -510 l-61 -85 0 -93 c0 -106 4 -111 70 -87 168
60 479 58 640 -4 30 -11 61 -21 68 -21 9 0 12 25 12 90 0 84 -2 91 -25 106
-53 35 -119 47 -295 53 -156 5 -175 8 -175 23 0 10 56 90 125 180 68 89 177
241 242 338 l118 175 0 67 0 68 -360 0 -360 0 0 -80z"/>
<path d="M5886 4774 c-80 -16 -236 -65 -236 -74 0 -3 26 -3 58 1 84 11 327 10
355 0 13 -5 30 -23 37 -41 25 -59 -6 -249 -64 -392 -14 -34 -23 -64 -20 -67 2
-3 26 18 52 46 84 90 149 238 173 393 14 91 6 124 -37 140 -36 14 -237 11
-318 -6z"/>
<path d="M2725 4664 c116 -101 309 -234 472 -323 244 -136 532 -232 846 -283
112 -19 173 -22 407 -22 277 0 324 3 535 44 288 56 592 177 826 331 87 57 106
83 72 96 -18 7 -64 -9 -228 -77 -485 -201 -1161 -253 -1834 -139 -314 53 -598
150 -961 329 -90 44 -166 80 -169 80 -3 -1 12 -16 34 -36z"/>
</g>
</svg>
