<?xml version="1.0" standalone="no"?>
<!DOCTYPE svg PUBLIC "-//W3C//DTD SVG 20010904//EN"
 "http://www.w3.org/TR/2001/REC-SVG-20010904/DTD/svg10.dtd">
<svg version="1.0" xmlns="http://www.w3.org/2000/svg"
 width="1024.000000pt" height="1024.000000pt" viewBox="0 0 1024.000000 1024.000000"
 preserveAspectRatio="xMidYMid meet">

<g transform="translate(0.000000,1024.000000) scale(0.100000,-0.100000)"
fill="#000000" stroke="none">
<path d="M0 5120 l0 -5120 5120 0 5120 0 0 5120 0 5120 -5120 0 -5120 0 0
-5120z m4370 230 l0 -551 25 -24 c13 -14 36 -25 50 -25 20 0 25 -5 25 -25 0
-14 -3 -25 -6 -25 -3 0 -55 -11 -116 -25 -61 -14 -126 -25 -144 -25 l-34 0 0
51 0 51 -37 -30 c-63 -49 -104 -65 -179 -70 -61 -4 -80 -1 -127 21 -130 60
-203 177 -222 362 -21 200 95 411 262 476 75 29 212 32 260 6 18 -9 34 -17 38
-17 3 0 5 50 5 112 0 101 -2 114 -22 135 -12 13 -32 23 -45 23 -13 0 -23 2
-23 4 0 2 -3 11 -6 19 -4 11 12 20 63 35 37 12 95 32 128 46 33 14 70 25 83
26 l22 0 0 -550z m1190 -19 l0 -570 22 -15 c12 -9 35 -16 50 -16 23 0 28 -4
28 -25 l0 -25 -216 0 -215 0 3 22 c2 16 12 24 36 29 44 9 70 34 83 82 15 56 1
900 -15 923 -7 8 -31 18 -54 21 -36 5 -43 9 -40 27 2 16 13 22 44 28 23 3 86
24 140 46 55 22 107 40 117 41 16 1 17 -32 17 -568z m1047 329 c-1 -132 0
-240 2 -240 2 0 22 16 44 36 59 54 119 77 199 77 76 0 114 -12 179 -59 108
-78 155 -266 114 -457 -56 -263 -256 -403 -511 -356 -67 12 -215 67 -226 83
-4 6 -7 229 -8 496 -1 536 3 508 -67 519 -28 5 -39 12 -41 26 -2 17 6 22 47
32 28 7 88 27 133 47 46 19 95 35 110 35 l27 1 -2 -240z m883 -327 c0 -513 2
-568 17 -585 9 -10 24 -18 34 -18 31 0 49 -12 49 -31 0 -18 -11 -19 -205 -19
l-205 0 0 25 c0 21 5 25 30 25 20 0 40 9 56 25 l25 25 -3 471 -3 471 -24 19
c-13 10 -36 19 -52 19 -24 0 -29 4 -29 23 0 20 8 26 53 36 28 6 88 27 132 46
44 19 90 34 103 35 l22 0 0 -567z m-6310 513 c0 -20 -6 -24 -42 -29 -26 -3
-51 -15 -67 -31 l-26 -26 -3 -210 -3 -210 240 0 241 0 0 205 0 205 -27 30
c-20 23 -40 33 -70 37 -37 5 -43 9 -43 29 l0 24 255 0 255 0 0 -24 c0 -20 -6
-24 -42 -29 -31 -4 -51 -14 -71 -37 l-27 -30 0 -480 0 -479 23 -27 c17 -19 37
-29 68 -33 38 -5 43 -9 43 -31 l0 -25 -249 0 -250 0 0 25 c0 14 6 26 13 26 6
1 24 2 38 3 14 0 39 14 55 30 l29 29 0 221 0 221 -224 0 c-123 0 -231 3 -240
6 -14 5 -16 -17 -16 -212 0 -200 2 -222 20 -251 13 -22 31 -35 60 -43 22 -6
45 -8 50 -5 6 4 10 -7 10 -24 l0 -31 -245 0 -245 0 0 28 c0 26 4 29 32 30 48
1 75 20 92 64 23 55 24 910 2 963 -16 36 -59 65 -101 65 -20 0 -25 5 -25 25
l0 25 245 0 245 0 0 -24z m7530 -201 l0 -134 93 -3 c71 -2 91 -6 89 -16 -3
-16 -5 -16 67 22 74 38 150 118 186 193 29 60 53 82 75 68 6 -4 10 -59 10
-135 l0 -129 93 -3 92 -3 0 -30 c0 -37 -25 -45 -117 -37 l-68 5 0 -294 c0
-250 2 -298 16 -317 22 -31 78 -30 127 4 35 24 67 27 67 6 0 -21 -67 -106
-107 -137 -74 -57 -182 -61 -248 -11 -65 50 -65 50 -65 411 l0 325 -72 1 c-40
0 -110 1 -155 2 l-83 2 0 -286 c0 -275 1 -287 21 -313 28 -36 63 -33 129 9 48
31 56 33 69 20 13 -12 10 -21 -21 -67 -21 -32 -59 -70 -93 -93 -54 -38 -62
-40 -129 -40 -64 0 -77 3 -110 29 -65 49 -66 58 -66 416 l0 321 -72 -2 c-71
-2 -73 -2 -76 22 -2 20 8 30 68 63 86 48 157 122 199 204 26 51 36 62 56 62
l25 0 0 -135z m-6295 -129 c52 -22 83 -52 106 -101 17 -36 19 -69 19 -321 0
-258 2 -284 18 -304 17 -20 22 -22 50 -12 28 9 32 8 38 -10 15 -49 -105 -116
-188 -105 -47 6 -94 46 -103 89 l-7 28 -53 -49 c-90 -82 -194 -102 -290 -57
-58 27 -78 47 -100 99 -52 125 27 258 205 343 47 23 118 54 157 70 l73 29 0
97 c0 87 -2 100 -23 123 -29 35 -99 45 -145 21 -42 -22 -62 -63 -62 -131 0
-49 -4 -60 -29 -86 -75 -75 -190 5 -161 112 20 73 98 140 205 176 56 18 237
12 290 -11z m2619 -6 c91 -44 155 -145 171 -271 l7 -56 -32 -7 c-18 -3 -138
-6 -268 -6 l-235 0 6 -52 c13 -123 74 -224 161 -264 116 -54 213 -17 312 120
18 25 23 27 42 17 12 -6 22 -17 22 -22 0 -6 -17 -48 -39 -93 -46 -99 -97 -158
-165 -194 -44 -23 -63 -26 -141 -26 -96 0 -137 12 -208 61 -87 60 -154 198
-164 337 -15 229 100 420 286 473 66 19 190 10 245 -17z m1055 15 c32 -8 73
-11 102 -8 l50 6 -3 -144 c-3 -141 -4 -144 -25 -147 -14 -2 -23 2 -23 10 0 34
-61 137 -100 171 -95 81 -212 54 -212 -48 0 -21 8 -45 18 -56 10 -11 76 -55
147 -97 214 -127 252 -172 251 -297 -1 -38 -8 -86 -16 -106 -23 -53 -77 -110
-127 -132 -62 -27 -182 -34 -267 -13 -38 8 -89 17 -114 18 l-45 3 -3 148 -3
147 25 0 c20 0 27 -8 39 -45 20 -58 69 -128 113 -162 27 -20 50 -28 94 -31 52
-4 60 -2 91 26 28 25 34 37 34 71 0 59 -27 87 -157 166 -148 90 -192 126 -217
178 -23 48 -28 137 -10 200 18 64 82 124 159 148 41 12 142 10 199 -6z m2053
-5 c67 -21 93 -42 124 -100 17 -31 19 -66 22 -332 4 -331 5 -333 65 -310 81
30 45 -45 -43 -90 -93 -49 -181 -28 -210 51 l-16 41 -34 -36 c-71 -73 -181
-108 -268 -84 -60 16 -124 81 -142 143 -10 38 -11 59 -1 101 26 115 103 177
346 276 44 18 86 37 93 43 17 13 16 139 -2 182 -35 83 -169 86 -211 5 -8 -16
-15 -50 -15 -75 0 -52 -21 -99 -49 -115 -37 -19 -81 -12 -112 19 -24 25 -29
38 -29 79 0 42 6 58 33 94 39 50 106 94 173 113 75 20 201 18 276 -5z m-5160
-56 l-4 -66 51 40 c88 69 134 87 232 87 76 0 90 -3 126 -27 26 -17 49 -45 64
-75 23 -47 24 -57 29 -355 5 -336 5 -333 65 -341 24 -3 31 -9 33 -30 l3 -27
-198 2 -197 3 -1 25 c0 20 6 26 27 28 14 2 34 12 44 24 18 18 19 41 19 283 0
286 -3 303 -57 331 -38 20 -107 18 -143 -4 -17 -11 -45 -33 -63 -51 l-32 -33
0 -231 c0 -276 5 -302 60 -318 32 -10 40 -17 40 -36 l0 -23 -197 2 -198 3 0
25 c0 14 5 25 10 25 36 2 64 18 74 43 8 20 11 112 9 311 l-3 283 -24 19 c-13
10 -36 19 -52 19 -24 0 -29 4 -29 25 0 19 5 25 23 25 12 1 72 18 132 39 61 22
121 39 135 40 25 1 25 0 22 -65z"/>
<path d="M4309 5860 c-9 -5 -55 -22 -102 -38 -79 -27 -100 -42 -57 -42 8 0 23
-13 33 -29 14 -24 17 -55 17 -165 l0 -135 -57 30 c-54 29 -64 31 -144 27 -107
-5 -175 -35 -246 -111 -60 -64 -88 -115 -108 -199 -25 -109 -18 -207 26 -323
32 -86 115 -168 194 -190 99 -29 171 -8 280 80 l55 45 0 -71 c0 -62 2 -70 18
-65 9 2 66 14 125 27 102 21 123 33 68 41 -13 1 -32 14 -42 28 -18 24 -19 56
-19 563 -1 559 0 551 -41 527z m-210 -419 c21 -11 52 -36 69 -56 l32 -36 0
-235 0 -235 -37 -35 c-89 -81 -171 -92 -252 -34 -83 61 -122 160 -122 312 0
157 57 286 145 324 46 20 121 17 165 -5z"/>
<path d="M3943 5420 c-86 -38 -142 -186 -130 -339 8 -97 29 -158 74 -210 76
-89 161 -96 247 -21 l36 32 0 230 c0 262 -2 268 -83 307 -53 26 -90 26 -144 1z"/>
<path d="M5445 5833 c-44 -18 -97 -36 -118 -39 l-38 -7 40 -18 c25 -11 42 -26
46 -41 3 -13 4 -229 3 -480 -3 -444 -4 -457 -24 -485 -11 -15 -36 -36 -55 -45
-34 -18 -32 -18 146 -18 157 1 176 2 150 14 -63 27 -60 -3 -65 600 l-5 551
-80 -32z"/>
<path d="M6475 5834 c-44 -18 -90 -33 -102 -34 -28 0 -41 -20 -13 -20 11 0 32
-11 45 -25 l25 -24 0 -489 0 -489 83 -31 c208 -79 361 -59 482 63 92 93 135
205 137 360 2 149 -43 256 -132 316 -116 78 -242 60 -362 -50 l-58 -53 0 256
c0 199 -3 256 -12 255 -7 -1 -49 -16 -93 -35z m388 -460 c89 -63 133 -185 124
-344 -6 -125 -33 -196 -93 -249 -89 -78 -217 -74 -288 10 l-26 31 0 248 0 248
37 32 c53 47 90 61 151 57 38 -3 64 -12 95 -33z"/>
<path d="M6685 5368 c-11 -6 -34 -24 -52 -40 l-31 -30 -1 -230 c0 -217 1 -232
20 -259 28 -40 74 -61 129 -61 146 0 243 176 211 383 -19 119 -64 199 -133
235 -32 17 -115 18 -143 2z"/>
<path d="M7365 5834 c-44 -18 -89 -34 -100 -34 -11 0 -27 -5 -35 -10 -12 -8
-11 -10 8 -10 13 0 34 -11 47 -25 l25 -24 0 -473 c0 -358 -3 -479 -13 -498 -7
-14 -28 -33 -47 -42 -35 -18 -33 -18 145 -17 113 1 167 4 146 9 -18 4 -43 18
-55 29 -21 21 -21 25 -24 576 -1 305 -6 555 -10 554 -4 0 -43 -16 -87 -35z"/>
<path d="M780 5827 c25 -12 51 -33 57 -47 10 -19 12 -138 11 -517 l-3 -491
-24 -26 c-14 -15 -39 -30 -55 -35 -21 -6 33 -9 164 -10 l195 -1 -41 19 c-26
12 -45 29 -52 47 -7 18 -13 116 -14 262 l-3 232 268 0 267 0 0 -234 c0 -226
-1 -234 -23 -267 -15 -22 -36 -38 -62 -45 -34 -11 -10 -12 165 -13 171 0 199
2 170 12 -20 7 -44 27 -57 46 l-24 35 3 482 c3 471 3 483 24 511 11 15 36 36
55 45 33 17 29 17 -166 17 -195 0 -199 0 -165 -17 19 -9 45 -32 57 -51 22 -33
23 -42 23 -247 l0 -214 -267 0 -268 0 3 222 c3 248 5 256 73 290 33 17 29 17
-161 17 l-195 0 45 -22z"/>
<path d="M8647 5696 c-37 -76 -95 -137 -183 -192 -41 -25 -74 -48 -74 -51 0
-3 32 -2 70 2 l70 7 0 -328 c0 -310 1 -330 21 -370 37 -77 131 -104 216 -63
39 19 143 121 143 141 0 4 -20 -7 -45 -24 -75 -53 -154 -36 -174 39 -7 22 -11
155 -11 321 l0 282 95 0 c78 0 95 3 95 15 0 12 -17 15 -95 15 l-94 0 -3 131
-3 131 -28 -56z"/>
<path d="M9165 5689 c-37 -77 -112 -154 -194 -198 -34 -18 -61 -35 -61 -38 0
-3 29 -3 65 0 l65 6 0 -332 c0 -379 1 -382 80 -424 86 -45 181 -19 251 69 46
59 51 80 9 45 -61 -52 -130 -42 -162 23 -16 31 -18 69 -18 328 l0 292 95 0
c78 0 95 3 95 15 0 12 -17 15 -95 15 l-94 0 -3 131 -3 132 -30 -64z"/>
<path d="M2150 5505 c-150 -42 -248 -164 -190 -238 16 -20 30 -27 55 -27 44 0
61 26 68 102 10 108 61 154 160 146 97 -8 127 -54 127 -196 l0 -88 -92 -38
c-272 -113 -368 -204 -356 -335 9 -93 79 -151 183 -151 37 0 70 7 98 21 43 21
157 125 157 143 0 6 -15 -4 -32 -21 -46 -43 -74 -55 -127 -56 -80 -1 -131 53
-131 138 0 99 80 185 235 255 l66 29 -2 -192 c-1 -208 8 -267 44 -292 34 -24
113 -19 164 10 51 31 55 42 10 37 -64 -7 -65 -2 -69 328 -3 258 -5 299 -20
327 -21 38 -69 76 -118 92 -59 20 -169 23 -230 6z"/>
<path d="M2270 5115 c-113 -61 -170 -132 -170 -210 0 -77 53 -124 126 -112 44
7 102 50 109 80 6 31 11 277 5 277 -3 0 -34 -16 -70 -35z"/>
<path d="M4777 5495 c-95 -35 -178 -121 -218 -225 -14 -35 -23 -88 -26 -145
-15 -261 129 -448 343 -448 87 0 145 25 204 89 38 42 118 189 108 199 -2 3
-21 -18 -41 -45 -51 -69 -111 -102 -197 -108 -60 -4 -76 -1 -123 22 -54 26
-99 73 -131 134 -19 36 -46 150 -46 195 l0 27 168 0 c92 0 211 3 266 7 l98 6
-6 51 c-4 28 -20 79 -36 112 -49 101 -126 145 -254 143 -39 0 -88 -7 -109 -14z
m163 -43 c50 -24 80 -88 80 -169 l0 -63 -184 0 -183 0 8 50 c14 92 44 147 96
181 37 25 135 26 183 1z"/>
<path d="M4775 5431 c-17 -10 -38 -29 -47 -43 -15 -22 -48 -120 -48 -140 0 -4
73 -8 161 -8 l162 0 -6 49 c-8 71 -31 118 -69 141 -42 26 -113 26 -153 1z"/>
<path d="M5919 5506 c-109 -23 -172 -103 -172 -217 0 -105 42 -152 243 -271
121 -73 150 -107 150 -177 0 -54 -18 -84 -63 -107 -40 -21 -123 -22 -163 -1
-50 26 -104 88 -136 155 -17 35 -31 62 -32 60 0 -2 0 -59 2 -127 l3 -123 25 5
c13 2 59 -4 102 -14 227 -55 375 24 390 206 9 121 -33 172 -256 303 -64 38
-126 79 -136 91 -11 12 -21 41 -24 69 -4 41 0 52 23 80 90 107 273 24 326
-148 4 -15 8 21 8 90 l1 116 -38 -4 c-21 -2 -72 3 -114 12 -43 9 -78 16 -80
15 -2 0 -28 -6 -59 -13z"/>
<path d="M7890 5505 c-121 -34 -210 -117 -210 -195 0 -30 43 -72 73 -72 42 0
67 28 67 76 0 107 46 167 132 173 67 5 116 -19 141 -67 13 -27 17 -55 15 -123
l-3 -88 -133 -59 c-161 -72 -236 -120 -277 -178 -26 -38 -30 -52 -30 -112 0
-61 3 -72 31 -107 40 -50 87 -73 150 -73 72 0 118 22 191 92 67 65 88 102 27
48 -45 -39 -73 -50 -130 -50 -54 0 -92 23 -110 67 -47 111 26 227 195 313 44
22 83 40 86 40 3 0 5 -92 4 -205 -1 -180 1 -209 18 -242 33 -68 118 -76 204
-19 21 15 39 32 39 38 0 9 -3 9 -12 0 -20 -20 -65 -14 -82 10 -14 19 -16 66
-16 308 0 276 -1 287 -22 330 -18 36 -35 51 -80 73 -71 36 -184 45 -268 22z"/>
<path d="M8037 5134 c-124 -60 -189 -134 -195 -225 -4 -55 -2 -60 27 -90 29
-29 36 -31 81 -27 51 5 110 40 130 78 6 12 9 74 8 154 l-3 134 -48 -24z"/>
<path d="M3169 5492 c-64 -26 -131 -74 -173 -124 l-36 -43 0 88 c0 48 -3 87
-7 87 -5 -1 -59 -18 -120 -38 -109 -37 -112 -38 -83 -49 57 -21 62 -51 58
-368 -3 -283 -3 -283 -27 -309 -13 -14 -33 -27 -45 -29 -11 -2 53 -4 144 -4
91 0 155 2 143 4 -13 2 -32 16 -43 30 -19 24 -20 40 -20 292 l0 267 43 41 c72
72 157 92 226 55 69 -37 72 -53 69 -363 -3 -253 -5 -279 -22 -297 -10 -12 -28
-23 -40 -25 -11 -2 51 -5 139 -5 99 0 152 3 139 8 -51 20 -54 36 -54 305 0
137 -5 279 -10 314 -10 74 -45 133 -92 157 -48 25 -135 28 -189 6z"/>
</g>
</svg>
