<?xml version="1.0" standalone="no"?>
<!DOCTYPE svg PUBLIC "-//W3C//DTD SVG 20010904//EN"
 "http://www.w3.org/TR/2001/REC-SVG-20010904/DTD/svg10.dtd">
<svg version="1.0" xmlns="http://www.w3.org/2000/svg"
 width="1024.000000pt" height="1024.000000pt" viewBox="0 0 1024.000000 1024.000000"
 preserveAspectRatio="xMidYMid meet">

<g transform="translate(0.000000,1024.000000) scale(0.100000,-0.100000)"
fill="#000000" stroke="none">
<path d="M0 5120 l0 -5120 5120 0 5120 0 0 5120 0 5120 -5120 0 -5120 0 0
-5120z m7838 2406 c54 -27 102 -76 131 -134 20 -39 67 -220 59 -227 -3 -3 -11
21 -18 52 -28 129 -49 178 -102 237 -31 35 -56 55 -65 52 -8 -3 -12 -2 -8 3 6
11 -43 28 -105 37 -33 4 -41 3 -30 -5 8 -6 24 -11 35 -11 23 0 32 -39 12 -52
-8 -5 -7 -8 6 -9 9 -1 21 -2 27 -3 5 0 30 -18 55 -39 47 -40 80 -90 71 -110
-2 -7 -5 -5 -5 4 -2 30 -60 98 -103 121 -62 31 -112 27 -353 -31 -328 -78
-735 -174 -1760 -416 -1075 -253 -1640 -387 -2255 -535 -234 -55 -661 -157
-950 -226 -958 -226 -903 -209 -956 -300 -46 -78 -44 -110 30 -420 88 -373
381 -1709 451 -2059 31 -154 64 -294 72 -312 21 -46 91 -107 148 -128 46 -18
52 -18 139 -3 50 10 187 40 305 67 209 50 239 56 230 46 -11 -11 -574 -135
-612 -135 -23 0 -62 9 -86 20 -52 24 -51 24 -51 6 0 -8 -6 -17 -12 -19 -7 -3
-3 -6 10 -6 12 -1 22 3 22 9 0 5 6 7 13 4 7 -2 13 -15 13 -29 0 -13 -4 -21 -8
-19 -4 3 -8 0 -8 -5 0 -11 8 -13 58 -15 15 -1 30 -4 33 -9 8 -11 108 6 289 48
147 34 237 51 215 40 -5 -2 -111 -28 -235 -56 -250 -57 -292 -58 -385 -15 -56
26 -118 83 -108 99 3 6 1 7 -5 3 -6 -4 -22 12 -37 38 -19 33 -39 108 -80 313
-29 148 -108 516 -175 818 -66 303 -141 642 -166 755 -68 311 -112 501 -150
652 -49 198 -45 279 19 374 40 60 104 110 160 125 55 15 783 189 1192 285 176
41 572 136 880 210 308 74 711 171 895 214 184 43 468 110 630 149 383 91
1665 393 2025 478 154 36 314 74 355 84 96 24 182 19 248 -15z m-53 -6 c3 -5
-1 -10 -10 -10 -9 0 -13 5 -10 10 3 6 8 10 10 10 2 0 7 -4 10 -10z m153 -315
c0 -16 -2 -15 -8 5 -4 14 -8 34 -8 45 0 16 2 15 8 -5 4 -14 8 -34 8 -45z m20
-90 c0 -16 -2 -15 -8 5 -4 14 -8 34 -8 45 0 16 2 15 8 -5 4 -14 8 -34 8 -45z
m90 -30 c0 -16 -2 -15 -8 5 -4 14 -8 34 -8 45 0 16 2 15 8 -5 4 -14 8 -34 8
-45z m-81 -27 c-3 -7 -5 -2 -5 12 0 14 2 19 5 13 2 -7 2 -19 0 -25z m90 -30
c-3 -7 -5 -2 -5 12 0 14 2 19 5 13 2 -7 2 -19 0 -25z m-80 -10 c-3 -8 -6 -5
-6 6 -1 11 2 17 5 13 3 -3 4 -12 1 -19z m90 -30 c-3 -8 -6 -5 -6 6 -1 11 2 17
5 13 3 -3 4 -12 1 -19z m-69 -48 c0 -9 -3 -7 -8 5 -5 11 -8 29 -8 40 0 16 2
15 8 -5 4 -14 8 -32 8 -40z m79 8 c-3 -8 -6 -5 -6 6 -1 11 2 17 5 13 3 -3 4
-12 1 -19z m10 -50 c-3 -7 -5 -2 -5 12 0 14 2 19 5 13 2 -7 2 -19 0 -25z m-80
-10 c-3 -8 -6 -5 -6 6 -1 11 2 17 5 13 3 -3 4 -12 1 -19z m10 -50 c-3 -7 -5
-2 -5 12 0 14 2 19 5 13 2 -7 2 -19 0 -25z m-1223 3 c15 -17 65 -235 66 -288
0 -29 13 -29 124 -3 123 29 125 27 150 -116 20 -114 16 -119 -124 -149 -47
-10 -86 -19 -88 -21 -4 -3 96 -591 109 -642 18 -68 42 -72 167 -34 66 20 75
13 102 -86 25 -91 25 -94 -5 -130 -32 -38 -97 -68 -186 -87 -145 -31 -230 -14
-302 60 -70 72 -82 112 -147 484 -33 189 -61 345 -63 348 -2 2 -27 -1 -55 -7
-84 -19 -95 -6 -123 152 -15 83 -9 92 69 109 31 6 60 13 63 15 4 2 -4 63 -17
136 -28 161 -29 180 -6 201 18 16 193 75 228 76 11 1 28 -7 38 -18z m1313 -23
c-3 -8 -6 -5 -6 6 -1 11 2 17 5 13 3 -3 4 -12 1 -19z m10 -50 c-3 -8 -6 -5 -6
6 -1 11 2 17 5 13 3 -3 4 -12 1 -19z m-60 -100 c-3 -8 -6 -5 -6 6 -1 11 2 17
5 13 3 -3 4 -12 1 -19z m90 -30 c-3 -8 -6 -5 -6 6 -1 11 2 17 5 13 3 -3 4 -12
1 -19z m-1914 -286 c21 -23 20 -19 127 -641 80 -469 88 -527 76 -546 -20 -30
-196 -73 -232 -56 -13 6 -24 14 -24 18 0 5 -4 14 -9 22 -7 11 -23 2 -72 -43
-151 -136 -341 -179 -477 -106 -109 58 -155 142 -192 355 -125 719 -132 759
-122 780 8 17 31 26 128 48 66 15 127 27 136 27 29 0 45 -39 67 -170 58 -334
122 -678 132 -708 15 -47 61 -68 116 -53 66 18 135 70 163 123 l25 48 -28 157
c-122 704 -118 671 -91 694 14 11 207 64 250 68 6 1 18 -7 27 -17z m-1115
-239 c21 -19 52 -142 52 -209 0 -37 -22 -57 -77 -69 l-31 -6 24 -47 c30 -59
47 -169 39 -244 -9 -77 -53 -164 -107 -215 -72 -66 -143 -96 -311 -134 -94
-21 -127 -39 -127 -69 0 -39 46 -39 231 1 234 50 350 31 447 -75 103 -114 119
-289 39 -440 -81 -153 -244 -251 -486 -291 -184 -31 -321 -4 -413 83 -105 98
-119 276 -32 413 l24 38 -29 21 c-82 58 -96 221 -27 322 l23 35 -46 40 c-25
22 -58 64 -73 94 -119 236 -44 486 176 594 100 49 173 66 310 72 114 6 125 8
235 54 64 26 121 48 127 48 7 1 21 -7 32 -16z m-2576 -260 c8 -10 27 -84 42
-165 16 -82 30 -148 32 -148 2 0 42 9 89 20 103 24 129 25 145 5 7 -8 21 -57
31 -107 19 -89 19 -93 1 -110 -10 -10 -62 -29 -115 -42 -54 -13 -99 -25 -101
-27 -2 -2 22 -151 54 -332 60 -342 68 -367 115 -367 11 0 49 10 84 21 62 21
63 21 81 3 10 -11 27 -54 37 -97 17 -69 18 -81 5 -107 -34 -71 -287 -134 -393
-98 -75 25 -132 88 -168 182 -11 29 -45 200 -76 382 -31 181 -58 331 -60 332
-2 2 -29 -2 -59 -9 -76 -17 -89 -5 -111 110 -22 115 -18 127 53 147 31 8 62
17 68 19 8 2 4 46 -14 146 -32 182 -33 180 98 225 110 38 141 41 162 17z
m1218 -114 c144 -68 250 -228 295 -443 21 -102 22 -144 4 -162 -8 -7 -147 -46
-309 -84 -162 -39 -303 -73 -312 -78 -15 -6 -15 -11 5 -60 43 -102 115 -161
198 -162 61 0 161 37 229 85 36 24 73 45 83 45 10 0 45 -25 78 -57 80 -76 81
-103 6 -178 -139 -138 -413 -205 -599 -146 -192 61 -329 269 -368 559 -33 240
19 444 145 567 104 102 223 146 385 142 88 -2 114 -7 160 -28z m1797 -1995
c-3 -3 -12 -4 -19 -1 -8 3 -5 6 6 6 11 1 17 -2 13 -5z m-300 -70 c-3 -3 -12
-4 -19 -1 -8 3 -5 6 6 6 11 1 17 -2 13 -5z m-140 -30 c-3 -3 -12 -4 -19 -1 -8
3 -5 6 6 6 11 1 17 -2 13 -5z m-40 -10 c-3 -3 -12 -4 -19 -1 -8 3 -5 6 6 6 11
1 17 -2 13 -5z m-170 -40 c-3 -3 -12 -4 -19 -1 -8 3 -5 6 6 6 11 1 17 -2 13
-5z m-84 -21 c-7 -2 -19 -2 -25 0 -7 3 -2 5 12 5 14 0 19 -2 13 -5z m-46 -9
c-3 -3 -12 -4 -19 -1 -8 3 -5 6 6 6 11 1 17 -2 13 -5z m-62 -14 c-3 -5 -16
-10 -28 -9 -20 1 -20 2 3 9 14 4 26 8 28 9 2 1 0 -3 -3 -9z m-68 -16 c-3 -3
-12 -4 -19 -1 -8 3 -5 6 6 6 11 1 17 -2 13 -5z m360 0 c-3 -3 -12 -4 -19 -1
-8 3 -5 6 6 6 11 1 17 -2 13 -5z m-400 -10 c-3 -3 -12 -4 -19 -1 -8 3 -5 6 6
6 11 1 17 -2 13 -5z m-40 -10 c-3 -3 -12 -4 -19 -1 -8 3 -5 6 6 6 11 1 17 -2
13 -5z m-57 -14 c-14 -4 -34 -8 -45 -8 -16 0 -15 2 5 8 14 4 34 8 45 8 16 0
15 -2 -5 -8z m317 -6 c-3 -3 -12 -4 -19 -1 -8 3 -5 6 6 6 11 1 17 -2 13 -5z
m-407 -14 c-34 -11 -60 -11 -35 0 11 5 29 8 40 8 16 0 15 -2 -5 -8z m367 4
c-3 -3 -12 -4 -19 -1 -8 3 -5 6 6 6 11 1 17 -2 13 -5z m-40 -10 c-3 -3 -12 -4
-19 -1 -8 3 -5 6 6 6 11 1 17 -2 13 -5z m-412 -14 c-11 -5 -29 -8 -40 -8 -16
0 -15 2 5 8 34 11 60 11 35 0z m332 -6 c-3 -3 -12 -4 -19 -1 -8 3 -5 6 6 6 11
1 17 -2 13 -5z m-50 -10 c-3 -3 -12 -4 -19 -1 -8 3 -5 6 6 6 11 1 17 -2 13 -5z
m-397 -8 c0 -5 -177 -46 -193 -45 -12 1 157 46 181 48 6 1 12 -1 12 -3z m307
-12 c-3 -3 -12 -4 -19 -1 -8 3 -5 6 6 6 11 1 17 -2 13 -5z m-40 -10 c-3 -3
-12 -4 -19 -1 -8 3 -5 6 6 6 11 1 17 -2 13 -5z m-40 -10 c-3 -3 -12 -4 -19 -1
-8 3 -5 6 6 6 11 1 17 -2 13 -5z m-62 -14 c-11 -5 -29 -8 -40 -8 -16 0 -15 2
5 8 34 11 60 11 35 0z m-378 -6 c-3 -3 -12 -4 -19 -1 -8 3 -5 6 6 6 11 1 17
-2 13 -5z m-82 -20 c-27 -7 -57 -13 -65 -13 -21 1 70 27 95 27 11 0 -2 -6 -30
-14z m350 0 c-27 -7 -57 -13 -65 -13 -21 1 70 27 95 27 11 0 -2 -6 -30 -14z
m-438 -20 c-3 -3 -12 -4 -19 -1 -8 3 -5 6 6 6 11 1 17 -2 13 -5z m333 -4 c-34
-11 -60 -11 -35 0 11 5 29 8 40 8 16 0 15 -2 -5 -8z m-370 -4 c0 -2 -9 -6 -20
-9 -11 -3 -20 -1 -20 4 0 5 9 9 20 9 11 0 20 -2 20 -4z m-89 -22 c-25 -8 -61
-16 -80 -19 -20 -2 -7 4 29 14 75 22 117 26 51 5z m392 9 c-7 -2 -19 -2 -25 0
-7 3 -2 5 12 5 14 0 19 -2 13 -5z m-46 -9 c-3 -3 -12 -4 -19 -1 -8 3 -5 6 6 6
11 1 17 -2 13 -5z m-80 -20 c-3 -3 -12 -4 -19 -1 -8 3 -5 6 6 6 11 1 17 -2 13
-5z m-390 -10 c-3 -3 -12 -4 -19 -1 -8 3 -5 6 6 6 11 1 17 -2 13 -5z m346 -1
c-7 -2 -19 -2 -25 0 -7 3 -2 5 12 5 14 0 19 -2 13 -5z m-513 -39 c-74 -18
-142 -33 -150 -32 -21 1 240 66 265 66 11 0 -41 -15 -115 -34z m467 30 c-3 -3
-12 -4 -19 -1 -8 3 -5 6 6 6 11 1 17 -2 13 -5z m-187 -45 c-85 -21 -162 -38
-170 -38 -22 1 281 78 305 77 11 0 -50 -17 -135 -39z m-560 -50 c-63 -16 -122
-28 -130 -28 -21 2 200 57 225 57 11 0 -32 -13 -95 -29z m220 -30 c-85 -21
-162 -38 -170 -37 -21 1 280 76 305 76 11 0 -50 -17 -135 -39z m-385 -9 c-11
-5 -31 -8 -45 -8 l-25 0 25 8 c14 4 34 8 45 8 l20 1 -20 -9z m80 -61 c-228
-55 -257 -61 -262 -56 -2 3 31 13 74 22 43 9 119 27 168 40 50 13 101 23 115
23 14 0 -29 -13 -95 -29z m-775 -103 c0 -3 -4 -8 -10 -11 -5 -3 -10 -1 -10 4
0 6 5 11 10 11 6 0 10 -2 10 -4z"/>
<path d="M7638 7533 c7 -3 16 -2 19 1 4 3 -2 6 -13 5 -11 0 -14 -3 -6 -6z"/>
<path d="M7548 7513 c6 -2 18 -2 25 0 6 3 1 5 -13 5 -14 0 -19 -2 -12 -5z"/>
<path d="M7500 7500 c0 -5 7 -7 15 -4 8 4 15 8 15 10 0 2 -7 4 -15 4 -8 0 -15
-4 -15 -10z"/>
<path d="M7636 7488 c-16 -19 -17 -20 -1 -15 9 4 28 7 41 7 13 0 24 5 24 11 0
5 -4 7 -10 4 -5 -3 -10 -1 -10 4 0 18 -25 12 -44 -11z"/>
<path d="M7715 7490 c-3 -5 -1 -10 4 -10 6 0 11 5 11 10 0 6 -2 10 -4 10 -3 0
-8 -4 -11 -10z"/>
<path d="M7568 7481 c10 -6 7 -10 -12 -13 -14 -3 -26 -1 -26 4 0 5 -5 6 -11 3
-6 -4 -8 -10 -4 -13 3 -4 -11 -12 -32 -19 -41 -13 -23 -12 70 7 59 12 72 30
26 37 -16 2 -20 0 -11 -6z"/>
<path d="M7380 7476 c0 -2 7 -7 16 -10 8 -3 12 -2 9 4 -6 10 -25 14 -25 6z"/>
<path d="M7338 7463 c7 -3 16 -2 19 1 4 3 -2 6 -13 5 -11 0 -14 -3 -6 -6z"/>
<path d="M7258 7443 c7 -3 16 -2 19 1 4 3 -2 6 -13 5 -11 0 -14 -3 -6 -6z"/>
<path d="M7205 7430 c-3 -6 1 -7 9 -4 18 7 21 14 7 14 -6 0 -13 -4 -16 -10z"/>
<path d="M7290 7412 c0 -8 -5 -10 -12 -6 -10 5 -10 4 -1 -6 16 -17 35 -9 23
10 -7 11 -10 11 -10 2z"/>
<path d="M7340 7410 c-23 -7 -23 -8 -3 -9 12 -1 25 4 28 9 3 6 5 10 3 9 -2 -1
-14 -5 -28 -9z"/>
<path d="M2030 3193 c0 -4 5 -15 10 -23 8 -13 10 -13 10 2 0 9 -4 20 -10 23
-5 3 -10 3 -10 -2z"/>
<path d="M2048 3123 c7 -3 16 -2 19 1 4 3 -2 6 -13 5 -11 0 -14 -3 -6 -6z"/>
<path d="M2070 3053 c0 -19 17 -24 30 -8 9 10 9 15 1 15 -6 0 -11 -6 -11 -12
0 -9 -4 -8 -10 2 -6 9 -10 10 -10 3z"/>
<path d="M2097 2999 c7 -7 15 -10 18 -7 3 3 -2 9 -12 12 -14 6 -15 5 -6 -5z"/>
<path d="M2160 2970 c-9 -6 -10 -10 -3 -10 6 0 15 5 18 10 8 12 4 12 -15 0z"/>
<path d="M6655 6756 l-60 -23 0 -49 c0 -27 9 -97 20 -156 18 -103 18 -108 1
-127 -10 -11 -43 -25 -73 -31 l-55 -12 7 -51 c4 -29 11 -56 15 -60 4 -5 34 -3
65 4 55 12 59 12 75 -8 9 -12 23 -57 29 -100 7 -43 35 -203 62 -357 40 -226
54 -288 76 -329 32 -57 89 -103 140 -113 55 -10 223 28 267 61 17 13 17 19 6
64 -7 28 -13 51 -13 51 -1 0 -20 -7 -42 -15 -91 -32 -165 -12 -199 54 -13 24
-59 266 -117 614 -12 74 -17 133 -12 138 4 4 55 19 111 33 57 13 106 26 108
29 7 7 -5 90 -15 106 -6 9 -29 7 -99 -9 -51 -11 -103 -20 -117 -20 -29 0 -33
13 -66 203 -25 144 -20 139 -114 103z"/>
<path d="M6096 6269 c-44 -11 -81 -21 -83 -23 -4 -4 56 -367 97 -584 17 -86
30 -177 30 -201 0 -166 -257 -325 -378 -234 -53 40 -62 70 -138 496 -40 226
-74 413 -74 413 0 1 -38 -8 -85 -19 -70 -17 -85 -24 -85 -40 0 -20 83 -504
125 -728 26 -144 56 -212 112 -258 116 -96 306 -55 460 100 62 62 75 71 97 65
15 -4 32 -20 42 -39 9 -17 18 -33 19 -35 1 -2 33 3 70 9 l67 13 -7 45 c-4 25
-37 222 -75 436 -37 215 -76 438 -85 498 -10 59 -21 107 -24 106 -3 0 -42 -9
-85 -20z"/>
<path d="M4955 5998 c-92 -37 -108 -41 -205 -43 -70 -2 -132 -10 -183 -24
-181 -49 -270 -127 -304 -266 -14 -56 -14 -76 -4 -134 21 -118 66 -191 152
-248 45 -30 49 -50 14 -91 -86 -102 -84 -212 4 -282 23 -18 41 -41 41 -51 0
-9 -15 -40 -34 -68 -80 -119 -68 -283 26 -354 84 -64 242 -76 414 -32 249 63
381 189 392 375 7 123 -30 207 -115 256 -69 41 -176 44 -348 10 -157 -31 -209
-33 -252 -6 -38 23 -51 71 -34 123 18 55 42 67 175 97 191 44 277 94 328 193
50 98 31 270 -38 347 -50 55 -43 71 41 93 39 11 71 20 72 21 8 7 -22 126 -31
125 -6 0 -56 -18 -111 -41z m-178 -187 c68 -49 103 -126 105 -228 1 -78 -16
-125 -57 -161 -78 -69 -237 -83 -310 -28 -70 53 -111 190 -86 284 26 95 125
162 242 162 57 0 71 -4 106 -29z m253 -900 c66 -47 90 -162 51 -246 -22 -49
-79 -100 -137 -126 -49 -21 -178 -49 -224 -49 -39 0 -97 24 -129 53 -75 69
-82 237 -12 301 19 17 76 33 251 70 122 26 159 25 200 -3z"/>
<path d="M4624 5771 c-73 -18 -134 -86 -134 -149 0 -91 52 -184 110 -197 47
-10 138 13 173 45 27 24 31 35 35 94 9 145 -71 235 -184 207z"/>
<path d="M4767 4827 c-155 -36 -167 -44 -167 -114 0 -91 50 -153 124 -153 56
0 175 33 227 61 24 14 50 39 61 59 25 48 24 120 -3 154 -27 34 -64 33 -242 -7z"/>
<path d="M2413 5772 c-59 -21 -73 -30 -73 -46 0 -12 10 -81 22 -153 22 -132
22 -133 3 -152 -11 -11 -44 -26 -73 -33 -29 -7 -54 -15 -54 -18 0 -3 3 -29 7
-57 8 -59 8 -59 85 -41 42 10 53 9 65 -3 9 -9 35 -134 70 -339 66 -383 70
-400 95 -449 26 -52 92 -109 134 -117 61 -11 223 24 270 59 15 12 14 35 -9
104 -3 8 -14 8 -42 -3 -21 -7 -55 -13 -76 -14 -74 0 -110 36 -135 135 -22 86
-115 663 -109 678 4 10 42 24 112 40 58 14 109 27 111 30 3 3 1 31 -6 61 -10
50 -14 55 -33 51 -12 -3 -60 -14 -106 -25 -57 -13 -90 -16 -101 -10 -14 7 -25
46 -45 157 -15 82 -30 153 -34 159 -4 8 -28 4 -78 -14z"/>
<path d="M3470 5685 c-116 -33 -215 -104 -266 -192 -99 -168 -93 -456 16 -688
46 -100 110 -171 192 -216 61 -33 66 -34 178 -34 93 0 128 5 185 23 95 32 155
66 204 116 l41 42 -35 34 -35 34 -45 -33 c-24 -17 -70 -44 -102 -59 -50 -23
-71 -27 -148 -27 -73 0 -98 4 -131 22 -43 23 -86 67 -121 124 -30 48 -65 157
-58 179 6 19 52 31 518 140 l138 32 -6 32 c-34 179 -87 305 -159 379 -67 70
-134 100 -231 104 -51 2 -100 -3 -135 -12z m186 -130 c64 -38 122 -143 140
-254 5 -34 3 -41 -17 -54 -18 -11 -405 -107 -433 -107 -2 0 -12 7 -20 16 -12
12 -16 37 -16 108 0 187 59 282 197 315 51 13 99 5 149 -24z"/>
<path d="M3484 5501 c-22 -10 -50 -30 -62 -45 -25 -32 -42 -106 -42 -182 0
-51 1 -54 23 -49 12 3 86 21 165 39 79 19 146 36 149 40 10 10 -19 95 -47 139
-28 45 -80 77 -122 77 -12 0 -41 -9 -64 -19z"/>
</g>
</svg>
